<svg version="1.1" id="Layer_1" xmlns="http://www.w3.org/2000/svg" xmlns:xlink="http://www.w3.org/1999/xlink" x="0px" y="0px"
	 width="100%" viewBox="0 0 1662 2048" enable-background="new 0 0 1662 2048" xml:space="preserve">
<path fill="#000000" opacity="1.000000" stroke="none" 
	d="
M830.000000,0.999999 
	C1107.620728,1.000000 1385.241455,1.000000 1663.000000,1.000000 
	C1663.000000,542.697571 1663.000000,1084.395142 1662.531372,1626.546387 
	C1647.456543,1627.000366 1632.849609,1626.921753 1618.245239,1627.089966 
	C1616.156494,1627.114014 1614.081421,1628.330444 1611.625000,1628.996216 
	C1610.500000,1628.998169 1609.750000,1628.999023 1608.664062,1628.820190 
	C1605.885376,1629.092041 1603.442749,1629.543579 1600.751221,1629.996582 
	C1600.502441,1629.998047 1600.004883,1630.000000 1599.692261,1630.143555 
	C1598.483398,1631.636963 1597.282715,1632.876587 1596.746338,1634.356934 
	C1594.876343,1639.517334 1593.224609,1644.757080 1591.510742,1649.973633 
	C1583.511353,1674.322998 1575.451782,1698.652588 1567.543457,1723.031494 
	C1559.584595,1747.566040 1551.606079,1772.096558 1543.953369,1796.727417 
	C1535.714844,1823.243164 1527.860962,1849.878540 1519.797241,1876.448853 
	C1518.495239,1880.738647 1516.974121,1884.961914 1515.554321,1889.215942 
	C1515.098877,1889.193481 1514.643555,1889.170898 1514.188232,1889.148315 
	C1513.300415,1887.075317 1512.197632,1885.066284 1511.557495,1882.919434 
	C1503.676392,1856.485474 1496.231567,1829.915039 1487.932617,1803.613647 
	C1478.819946,1774.733643 1468.843994,1746.127075 1459.415771,1717.345215 
	C1450.555054,1690.296265 1441.898926,1663.180176 1433.194092,1636.080444 
	C1430.541870,1627.823364 1427.610962,1626.308228 1418.666748,1628.999512 
	C1417.888916,1628.997803 1417.444458,1628.996460 1416.789551,1628.679443 
	C1411.953979,1626.451538 1407.377930,1625.593506 1402.550049,1628.996338 
	C1399.400024,1628.996704 1396.700073,1628.995850 1393.787964,1628.677979 
	C1385.358276,1628.187988 1377.140869,1628.002441 1368.922363,1627.891357 
	C1368.619995,1627.887207 1368.307617,1628.610718 1367.666992,1628.996338 
	C1366.889893,1628.998413 1366.445801,1628.999268 1365.695557,1629.098145 
	C1365.036377,1630.715088 1364.028198,1632.437866 1364.427979,1633.722656 
	C1370.953735,1654.693115 1377.640503,1675.613647 1384.325195,1696.534546 
	C1394.809570,1729.347290 1405.356201,1762.140137 1415.807861,1794.963135 
	C1425.250366,1824.617310 1434.595459,1854.302124 1443.994141,1883.970093 
	C1450.676636,1905.063843 1457.346191,1926.161987 1464.137085,1947.220703 
	C1464.595093,1948.641113 1466.026367,1949.747559 1467.253662,1951.000977 
	C1467.502441,1951.001953 1468.000000,1951.004883 1468.212036,1951.322021 
	C1478.282715,1951.759399 1488.141357,1951.879639 1498.459595,1952.000000 
	C1509.279419,1952.000000 1519.639771,1952.000000 1530.367310,1952.187988 
	C1538.873901,1952.583740 1547.012207,1952.875244 1555.152710,1952.974854 
	C1562.480713,1953.064575 1563.726318,1952.291138 1566.014160,1945.303955 
	C1572.230469,1926.318237 1578.318604,1907.290161 1584.367188,1888.250122 
	C1591.927490,1864.452393 1599.288574,1840.590942 1606.936279,1816.821655 
	C1614.636230,1792.890015 1622.639404,1769.056274 1630.406616,1745.146240 
	C1640.285156,1714.737183 1650.036255,1684.286743 1659.939453,1653.885742 
	C1660.516968,1652.112915 1661.959839,1650.622070 1663.000000,1649.000000 
	C1663.000000,1782.300659 1663.000000,1915.601440 1663.000000,2049.000000 
	C1241.635742,2049.000000 820.271484,2049.000000 398.453613,2048.531250 
	C398.002991,2007.375122 398.005981,1966.687622 398.383026,1926.000000 
	C399.505524,1926.000000 400.253998,1926.000000 401.178894,1926.156494 
	C401.584442,1926.528931 401.799713,1926.757935 402.041290,1927.358887 
	C403.629883,1930.218750 404.888092,1932.967896 406.776581,1935.178467 
	C415.515594,1945.408203 427.566620,1950.155518 440.029205,1953.066406 
	C464.659576,1958.819092 489.175140,1956.991089 513.121399,1948.941284 
	C516.378601,1947.846436 519.054810,1945.023071 522.000000,1943.000000 
	C522.000000,1943.000000 521.999573,1943.000000 522.365784,1942.963135 
	C524.505432,1942.102173 526.406067,1941.474365 528.031250,1940.421509 
	C537.228516,1934.464111 542.237915,1925.243408 546.171753,1915.556885 
	C548.276367,1910.374756 548.774536,1904.540161 549.998657,1898.666748 
	C550.001282,1897.888916 550.002930,1897.444458 550.324341,1896.847290 
	C551.725952,1894.006714 553.419556,1891.396851 553.774597,1888.616089 
	C554.825989,1880.381958 555.425537,1872.086426 556.064575,1863.804321 
	C558.041565,1838.182129 557.613159,1812.611816 553.762573,1787.177124 
	C553.331177,1784.327148 551.296204,1781.719849 550.003723,1778.666748 
	C550.001221,1777.888916 549.999939,1777.444458 550.169128,1776.690918 
	C550.332397,1775.098389 550.728943,1773.636475 550.253601,1772.559570 
	C546.674072,1764.448486 543.144592,1756.299072 539.085754,1748.426514 
	C537.922852,1746.170898 535.073608,1744.784790 532.821350,1742.843506 
	C532.416260,1742.471069 532.201233,1742.242065 531.903442,1741.671265 
	C526.840454,1734.075806 518.863525,1731.295898 511.298248,1728.261230 
	C507.219086,1726.625000 502.454254,1726.698120 497.665527,1725.999512 
	C496.887939,1725.997803 496.443634,1725.996460 495.839050,1725.668701 
	C493.945251,1724.568359 492.244385,1723.216797 490.472748,1723.116699 
	C480.867493,1722.573608 471.246979,1722.243042 461.627563,1722.021362 
	C444.330292,1721.622681 428.555359,1726.730591 413.997589,1735.782593 
	C412.016541,1737.014404 410.651306,1739.236816 408.844727,1741.177002 
	C408.472931,1741.583008 408.244232,1741.798462 407.668945,1742.059326 
	C406.557251,1743.079224 405.779053,1744.039551 404.844604,1745.176636 
	C404.472809,1745.582642 404.244171,1745.798218 403.675873,1746.094971 
	C401.599854,1747.205444 399.850433,1748.220947 397.465027,1749.605469 
	C397.465027,1743.577148 397.585083,1738.376221 397.397949,1733.186401 
	C397.335083,1731.442993 396.490540,1729.728027 395.883179,1727.730713 
	C395.175140,1726.972778 394.587280,1726.484009 393.787415,1725.677979 
	C392.379120,1724.915649 391.185303,1724.091431 389.986176,1724.083740 
	C375.738098,1723.992065 361.488678,1723.966187 347.241455,1724.106567 
	C345.821625,1724.120483 344.413696,1725.339966 342.765686,1726.162842 
	C342.020325,1726.883789 341.509521,1727.441895 340.681030,1728.211914 
	C339.908875,1730.960327 339.058655,1733.496826 339.057037,1736.033691 
	C338.990417,1840.355835 339.000031,1944.677856 339.000000,2049.000000 
	C226.347641,2049.000000 113.695274,2049.000000 1.021456,2049.000000 
	C1.021456,1366.434326 1.021456,683.868591 1.021456,1.000000 
	C274.697510,1.000000 548.395142,1.000000 822.734497,1.410032 
	C822.026489,2.213185 820.669556,2.970631 819.328064,2.944195 
	C802.126648,2.605214 785.114441,4.358848 768.128967,6.933707 
	C747.787170,10.017351 727.837524,14.633918 708.252563,20.909027 
	C680.952209,29.656208 654.964661,41.276791 630.295227,55.909954 
	C597.153809,75.568451 567.380188,99.255150 541.456665,127.886314 
	C525.778625,145.201950 511.707642,163.607071 499.147430,183.269882 
	C484.853424,205.646927 473.402740,229.426758 464.111847,254.208344 
	C449.781769,292.430817 441.913788,332.126526 440.228943,372.847778 
	C439.526489,389.826111 441.214111,406.913208 442.016846,423.941315 
	C442.913483,442.962036 446.609161,461.563416 451.012543,480.029999 
	C460.703003,520.669495 476.906158,558.566162 498.977844,594.013916 
	C511.486359,614.102905 525.378113,633.206604 541.885803,650.112915 
	C555.630615,664.189575 569.934265,677.887329 585.193481,690.270264 
	C599.598328,701.959900 615.538452,711.765991 630.946228,722.189331 
	C631.801697,722.768005 634.786743,721.906006 635.392151,720.888489 
	C643.317322,707.568726 650.974182,694.089661 658.734497,680.671387 
	C666.982727,666.409424 675.315308,652.195984 683.527100,637.913025 
	C692.797302,621.789185 701.928345,605.585266 711.205200,589.465149 
	C719.100098,575.746460 727.136963,562.109497 735.071106,548.413208 
	C740.196960,539.564697 745.250916,530.674438 750.426636,521.646545 
	C709.536133,496.512024 684.051819,461.343628 675.961060,414.246368 
	C667.860229,367.090637 680.091797,325.156250 710.710693,289.119934 
	C738.033264,256.963104 773.705261,238.805969 815.876709,236.241470 
	C868.584656,233.036224 912.368774,252.601486 945.790161,293.506958 
	C973.491943,327.411804 983.874268,367.019196 977.756897,410.055359 
	C970.831238,458.777924 944.928589,495.742798 902.450623,521.638916 
	C941.313904,588.971436 980.015564,656.023865 1018.868286,723.338013 
	C1020.446716,722.629761 1021.867004,722.196106 1023.067139,721.421448 
	C1031.976196,715.671509 1040.916626,709.965332 1049.705933,704.036072 
	C1074.618164,687.230469 1096.668091,667.108826 1116.009766,644.233826 
	C1128.346069,629.643921 1139.867065,614.276489 1150.736328,598.554321 
	C1168.747070,572.501709 1181.793701,543.858643 1192.038940,513.942688 
	C1198.697144,494.501495 1203.654907,474.649719 1207.157959,454.362457 
	C1211.066772,431.726105 1212.927002,408.981628 1212.950073,386.059662 
	C1212.955566,380.625305 1212.432129,375.182129 1211.980835,369.757233 
	C1211.054810,358.619690 1210.802368,347.350983 1208.846680,336.390686 
	C1205.301514,316.521271 1201.765015,296.542603 1196.316895,277.145416 
	C1187.908203,247.206329 1175.035645,219.011505 1159.099609,192.214249 
	C1137.411499,155.744522 1110.921875,123.411957 1078.513916,95.907600 
	C1060.380737,80.517982 1041.195190,66.778419 1020.641968,54.769169 
	C999.269531,42.281242 977.064941,31.693537 953.588562,24.030315 
	C937.376099,18.738220 920.900513,14.033619 904.260010,10.339163 
	C890.409790,7.264220 876.190063,5.651652 862.054199,4.135204 
	C852.362488,3.095511 842.531372,3.383713 832.770447,2.914104 
	C831.818481,2.868303 830.922180,1.665658 830.000000,0.999999 
M274.665527,1926.881226 
	C275.443329,1925.920776 276.221100,1924.960449 277.000000,1924.000000 
	C277.000000,1924.000000 276.998779,1924.000000 277.671509,1923.793579 
	C278.780609,1921.862427 279.889709,1919.931152 281.000000,1918.000000 
	C281.000000,1918.000000 280.998779,1918.000000 281.652557,1917.787231 
	C283.358307,1915.232300 285.880920,1912.896240 286.633545,1910.086060 
	C290.657562,1895.061157 295.070770,1880.062744 297.731476,1864.773438 
	C300.195221,1850.616089 300.968323,1836.124146 301.805725,1821.739868 
	C302.263947,1813.868896 301.313812,1805.916016 300.999908,1797.200073 
	C301.001434,1796.133423 301.002960,1795.066650 301.632141,1793.583862 
	C303.569489,1789.606201 304.289093,1785.694458 301.002808,1781.125000 
	C301.001526,1779.083374 301.000214,1777.041626 301.375031,1774.265625 
	C301.583221,1772.294678 302.104279,1770.299072 301.951172,1768.356567 
	C300.425781,1749.003906 298.977417,1729.641846 297.120026,1710.319580 
	C295.807587,1696.666504 292.393188,1683.421143 286.660065,1670.949585 
	C284.314331,1665.846924 282.833984,1659.819458 277.000000,1657.000000 
	C277.000000,1657.000000 276.998779,1657.000000 276.919220,1656.285889 
	C275.732391,1652.277344 273.217377,1649.712646 269.000000,1649.000000 
	C269.000000,1649.000000 268.999115,1649.000000 268.803925,1648.343140 
	C265.618408,1644.007080 261.691437,1640.964111 255.379776,1640.862305 
	C254.586288,1640.573242 253.792801,1640.284180 252.720032,1639.376831 
	C247.061691,1634.420410 240.410202,1632.535522 232.332443,1632.999268 
	C231.888077,1632.997925 231.443695,1632.996582 230.695663,1632.357666 
	C228.339828,1631.313843 226.064682,1629.648682 223.614609,1629.330444 
	C211.093582,1627.704102 198.548737,1625.507080 185.972610,1625.214966 
	C159.048035,1624.589355 132.065002,1624.142090 105.272949,1628.025269 
	C87.951088,1630.535889 70.722603,1633.490723 55.117996,1642.043457 
	C52.456768,1643.502075 50.358841,1645.988525 48.000000,1648.000000 
	C48.000000,1648.000000 48.001133,1648.000000 47.313309,1648.078125 
	C46.209080,1649.052002 45.104851,1650.026001 43.651093,1651.528687 
	C42.434742,1652.685791 41.218395,1653.842896 39.344845,1655.192871 
	C35.725056,1657.488281 32.632538,1660.124634 32.847088,1665.659058 
	C32.230049,1667.106079 31.613008,1668.552979 30.332720,1670.230225 
	C29.500006,1671.197144 28.325193,1672.030151 27.885870,1673.151245 
	C21.258286,1690.062500 18.167822,1707.790161 16.105459,1725.724365 
	C15.871958,1727.755005 16.677689,1729.905273 16.999662,1732.666626 
	C16.998425,1733.111084 16.997185,1733.555542 16.371231,1734.409424 
	C15.920274,1735.605591 15.125179,1736.786377 15.070281,1738.000366 
	C14.321467,1754.560669 13.638898,1771.124390 13.056394,1787.691162 
	C12.994635,1789.447632 13.667621,1791.229736 13.998969,1793.937012 
	C13.999698,1800.624634 14.000427,1807.312378 13.625066,1814.734375 
	C13.416839,1816.702637 12.939990,1818.685425 13.045230,1820.636719 
	C13.607911,1831.069702 14.329793,1841.494019 14.970574,1851.922974 
	C16.046844,1869.439453 19.325165,1886.558472 25.317265,1903.026123 
	C29.190754,1913.671265 34.280552,1923.881470 43.106304,1931.469971 
	C54.647682,1941.393433 68.772057,1945.837036 83.187317,1949.468506 
	C84.345634,1949.760254 85.724472,1949.176758 87.667465,1949.000854 
	C88.111870,1949.002197 88.556282,1949.003540 89.318268,1949.654175 
	C90.719193,1950.408691 92.071724,1951.704712 93.528397,1951.835083 
	C110.211479,1953.325684 126.889420,1955.208374 143.611557,1955.824585 
	C157.690689,1956.343384 171.860641,1955.834106 185.926834,1954.860962 
	C199.808167,1953.900757 213.620972,1951.873535 227.431183,1950.064941 
	C229.059631,1949.851807 230.481750,1948.063232 232.665955,1947.002686 
	C233.110260,1947.001831 233.554550,1947.000977 234.620193,1947.340820 
	C244.943939,1946.462646 254.381790,1943.105713 262.849243,1937.127563 
	C263.439240,1936.711182 263.625336,1935.722534 264.441711,1934.590576 
	C265.293915,1934.060425 266.146149,1933.530151 267.637451,1932.904541 
	C268.424744,1932.269653 269.212067,1931.634888 270.000000,1931.000000 
	C270.000000,1931.000000 269.998779,1931.000000 270.708191,1930.911743 
	C271.805054,1929.607788 272.901947,1928.303833 274.000000,1927.000000 
	C274.000000,1927.000000 273.998779,1927.000000 274.665527,1926.881226 
M762.768494,1736.340332 
	C761.178223,1735.560181 759.587891,1734.780029 757.498779,1733.997925 
	C757.498779,1733.997925 757.000000,1733.995117 756.780701,1733.335449 
	C755.393860,1732.242920 754.166321,1730.635498 752.592163,1730.148926 
	C746.399292,1728.234375 740.152222,1726.424438 733.825439,1725.028076 
	C716.589050,1721.223755 699.052917,1722.105469 681.578064,1721.972656 
	C662.182983,1721.825195 643.480591,1725.244019 625.674622,1732.891724 
	C622.092712,1734.430054 619.206787,1737.588623 615.621094,1740.504883 
	C614.414856,1741.336548 613.208679,1742.168335 611.292786,1743.088379 
	C610.195190,1744.392212 609.097595,1745.696167 608.000000,1747.000000 
	C608.000000,1747.000000 608.001831,1747.000000 607.341919,1747.193848 
	C603.346497,1749.245728 601.221497,1752.507324 600.853210,1757.634644 
	C600.236267,1758.756470 599.619385,1759.878174 598.377014,1761.283203 
	C593.865601,1767.821655 590.876709,1774.806885 592.000488,1783.750000 
	C591.998657,1784.500000 591.996887,1785.250000 591.348450,1786.314697 
	C590.584717,1787.716309 589.310974,1789.058472 589.139465,1790.529053 
	C587.964661,1800.598633 586.164246,1810.697021 586.187927,1820.782349 
	C586.232056,1839.563721 587.082031,1858.361450 588.284485,1877.108398 
	C588.579468,1881.707275 587.209167,1887.357544 591.997986,1891.666626 
	C591.999390,1892.111084 592.000793,1892.555542 591.725098,1893.477295 
	C592.148438,1894.318237 592.571777,1895.159058 592.997620,1896.666626 
	C592.999023,1897.111084 593.000427,1897.555542 592.648438,1898.635498 
	C595.169128,1906.482666 597.668213,1914.337158 600.269348,1922.157593 
	C600.410950,1922.583374 601.404663,1922.725708 602.028320,1923.743896 
	C603.353027,1925.495972 604.677734,1927.247925 606.079651,1929.712280 
	C608.415100,1935.039673 611.977112,1938.945923 618.217102,1940.658081 
	C619.136292,1941.565552 619.895691,1942.884766 621.000610,1943.313354 
	C627.965759,1946.015381 634.829651,1949.365845 642.066528,1950.886841 
	C652.427429,1953.064697 663.048950,1954.182373 673.613464,1955.173706 
	C694.218079,1957.107178 714.777039,1956.369751 735.175903,1952.733032 
	C736.568298,1952.484741 737.730286,1950.944458 739.666016,1950.002686 
	C740.110413,1950.001831 740.554810,1950.000977 741.614990,1950.312012 
	C748.305359,1948.234009 755.026123,1946.245239 761.653564,1943.982788 
	C762.658020,1943.639893 763.228699,1942.026001 764.452759,1940.664429 
	C764.967896,1940.442993 765.483032,1940.221436 766.546570,1940.244629 
	C771.854126,1939.807983 774.868591,1936.463745 777.336853,1931.488892 
	C778.223755,1930.659302 779.110718,1929.829712 780.654968,1928.807373 
	C784.273987,1926.511475 787.368225,1923.876099 787.136108,1918.380859 
	C787.425659,1917.587158 787.715210,1916.793579 788.666748,1915.770996 
	C789.618347,1914.485474 791.174011,1913.307007 791.423828,1911.897095 
	C793.099426,1902.439331 794.658813,1892.953491 795.916565,1883.432007 
	C796.535706,1878.744873 793.758301,1876.947266 789.234192,1876.975342 
	C774.912903,1877.064087 760.590027,1876.937988 746.269836,1877.093140 
	C744.506836,1877.112183 742.756836,1878.331665 740.645996,1879.309814 
	C740.415710,1879.526855 740.199158,1879.756958 739.377502,1880.400513 
	C738.891174,1882.079712 738.226196,1883.729736 737.947876,1885.442749 
	C736.306763,1895.541504 734.227783,1905.222778 721.788513,1907.459595 
	C720.741089,1907.647827 719.924500,1909.119751 718.333923,1909.997437 
	C717.889465,1909.998291 717.445007,1909.999146 716.297363,1909.631470 
	C714.670776,1909.455078 713.044617,1909.131714 711.417480,1909.125977 
	C700.541443,1909.087646 689.664917,1909.081909 678.789307,1909.163574 
	C677.190613,1909.175537 675.595886,1909.708130 673.332703,1909.999146 
	C672.888245,1909.997803 672.443787,1909.996460 671.684204,1909.394775 
	C665.455505,1905.929810 659.226746,1902.464966 652.921814,1898.247803 
	C650.616150,1892.831909 648.310486,1887.415894 646.002502,1881.333374 
	C646.001160,1880.888916 645.999878,1880.444458 646.367676,1879.297363 
	C646.202209,1871.528687 646.314148,1863.739990 645.756042,1855.999634 
	C645.469604,1852.026733 646.925232,1850.863403 650.445007,1851.003052 
	C651.940186,1851.062378 653.440002,1851.000732 654.937683,1851.000732 
	C698.871216,1851.000000 742.804871,1851.031372 786.738098,1850.914673 
	C789.160156,1850.908325 791.578918,1849.669922 794.344543,1848.463623 
	C794.562378,1847.642456 794.780212,1846.821167 795.374451,1845.265747 
	C795.582825,1843.296387 796.015320,1841.320801 795.961182,1839.358765 
	C795.713928,1830.396240 795.431274,1821.432251 794.973511,1812.478394 
	C794.130676,1795.992432 791.927246,1779.722656 786.110962,1764.162476 
	C785.378784,1762.203735 783.403870,1760.709473 781.706482,1758.394531 
	C781.136841,1756.929688 780.567200,1755.464844 780.217957,1753.516479 
	C779.477844,1752.677612 778.737732,1751.838867 777.644958,1750.687012 
	C777.416077,1750.471069 777.201111,1750.242065 776.926453,1749.269653 
	C775.553101,1743.432129 771.613708,1740.324951 765.707642,1738.433716 
	C764.804932,1737.955811 763.902222,1737.477905 762.768494,1736.340332 
M904.000000,1783.000000 
	C904.000000,1783.000000 903.997620,1783.000000 904.647583,1782.811157 
	C906.098389,1781.207520 907.549194,1779.603760 909.000000,1778.000000 
	C909.000000,1778.000000 908.999451,1778.000000 909.723938,1777.917603 
	C914.359802,1775.737671 918.839844,1773.094482 923.663208,1771.472046 
	C934.528809,1767.817139 945.890442,1767.098633 957.190002,1768.145996 
	C969.094299,1769.249146 979.982239,1773.197266 984.565796,1785.607788 
	C986.410889,1790.603638 986.147888,1796.357666 987.051208,1801.731812 
	C987.410645,1803.869629 988.330566,1805.913452 988.996948,1808.937256 
	C988.997192,1840.291504 988.997375,1871.645752 988.622925,1903.734985 
	C988.476501,1904.207153 988.204346,1904.678711 988.202026,1905.151611 
	C988.132019,1919.191162 988.039001,1933.231079 988.127075,1947.269897 
	C988.134888,1948.517090 989.348755,1949.756836 990.000000,1951.000000 
	C990.000000,1951.000000 990.000610,1951.000000 990.423828,1951.635864 
	C991.785278,1952.085571 993.144104,1952.916992 994.508545,1952.926147 
	C1008.758057,1953.023071 1023.009155,1953.050293 1037.257812,1952.902344 
	C1038.844849,1952.885986 1040.419556,1951.666504 1042.345703,1950.463501 
	C1042.565430,1949.642334 1042.785156,1948.821167 1043.639282,1947.575806 
	C1044.092896,1945.208740 1044.938477,1942.842285 1044.942261,1940.474487 
	C1045.019653,1893.043457 1045.223999,1845.610474 1044.819580,1798.182861 
	C1044.734131,1788.156616 1043.035767,1777.991699 1040.777832,1768.190918 
	C1039.315674,1761.843384 1037.732788,1754.727417 1030.921631,1750.312378 
	C1029.947754,1749.208252 1028.973877,1748.104126 1027.920288,1746.287476 
	C1026.413574,1744.168335 1025.267822,1741.617188 1023.337952,1740.004517 
	C1014.820862,1732.887207 1005.074890,1728.185181 994.369507,1725.040894 
	C981.154724,1721.159668 967.714844,1722.430420 954.312439,1721.901123 
	C939.757568,1721.326172 926.801514,1726.026001 914.537231,1732.963623 
	C910.838806,1735.055786 908.151123,1738.934692 904.644592,1742.309448 
	C904.413513,1742.526367 904.196411,1742.756592 903.333862,1743.195557 
	C901.555908,1745.796997 899.777954,1748.398560 898.000000,1751.000000 
	C898.000000,1751.000000 898.001709,1751.000000 897.366821,1751.174072 
	C896.182739,1751.498901 894.998596,1751.823608 893.997131,1752.098267 
	C893.997131,1745.032959 894.142700,1738.351440 893.905518,1731.683472 
	C893.837402,1729.768677 892.664124,1727.893433 892.000000,1726.000000 
	C892.000000,1726.000000 891.998657,1726.004395 891.576538,1725.367310 
	C890.215454,1724.916504 888.857056,1724.083374 887.492920,1724.074097 
	C873.241089,1723.977173 858.987732,1723.949829 844.736816,1724.098389 
	C843.151672,1724.114868 841.579163,1725.340210 839.999512,1726.502441 
	C839.999512,1726.502441 839.997559,1727.000000 839.362549,1727.423706 
	C838.909607,1729.125000 838.062134,1730.825806 838.060486,1732.527466 
	C837.993713,1803.097412 837.987061,1873.667358 838.085938,1944.237183 
	C838.088623,1946.159058 839.332458,1948.079102 840.311707,1950.354370 
	C840.528320,1950.584595 840.757812,1950.801147 841.424194,1951.638794 
	C842.620239,1952.083984 843.813904,1952.908813 845.012817,1952.916504 
	C859.260437,1953.008179 873.509277,1953.033936 887.756104,1952.894043 
	C889.176697,1952.880005 890.585510,1951.662842 892.353699,1950.689453 
	C892.583557,1950.472534 892.799805,1950.242676 893.637512,1949.576294 
	C894.091675,1947.210205 894.937012,1944.844971 894.941711,1942.478027 
	C895.022766,1901.882935 894.718689,1861.284302 895.211914,1820.695068 
	C895.325073,1811.381104 898.112244,1802.101074 899.640198,1792.800781 
	C899.845947,1791.548096 899.882690,1790.267578 900.162048,1788.460449 
	C900.440552,1787.973633 900.719116,1787.486816 901.641357,1786.785767 
	C902.427551,1785.523804 903.213806,1784.261963 904.000000,1783.000000 
M1114.000000,1156.411255 
	C1113.344360,1095.600708 1140.007202,1049.861694 1190.796509,1017.437561 
	C1151.951782,950.163025 1113.154907,882.971191 1074.363037,815.788269 
	C939.021790,891.101135 850.984741,1057.080688 889.458740,1233.286133 
	C910.592957,1330.078003 962.157471,1408.341675 1043.397095,1465.636353 
	C1124.671509,1522.955933 1215.371582,1545.718994 1314.196167,1533.883667 
	C1401.083740,1523.477783 1476.226929,1487.064819 1538.277222,1425.769775 
	C1608.205933,1356.692505 1646.496582,1271.933472 1652.626831,1173.873657 
	C1657.725952,1092.310547 1638.244873,1016.089050 1595.021484,946.422974 
	C1560.973145,891.544800 1515.711426,848.137939 1459.617188,815.470581 
	C1420.515503,883.202820 1381.739502,950.370667 1342.917114,1017.618958 
	C1358.098511,1027.437988 1371.785767,1037.948364 1383.167603,1051.469727 
	C1398.058472,1069.159546 1408.555298,1088.951904 1414.599976,1111.184326 
	C1419.792236,1130.282104 1421.587036,1149.722168 1418.855469,1169.319580 
	C1416.967529,1182.864380 1413.402832,1196.046143 1408.165283,1208.820801 
	C1398.009888,1233.589722 1382.314453,1254.157104 1361.508057,1270.656494 
	C1345.946899,1282.996460 1328.491333,1292.100220 1309.179688,1297.444214 
	C1293.317383,1301.833740 1277.353760,1304.026855 1260.792603,1303.194458 
	C1248.076782,1302.555420 1235.791870,1300.579102 1223.601807,1297.081299 
	C1201.355225,1290.698486 1181.833008,1279.504639 1164.703125,1264.132080 
	C1148.106934,1249.238525 1135.381836,1231.474121 1126.463745,1210.988159 
	C1119.012695,1193.872070 1115.192139,1175.940063 1114.000000,1156.411255 
M322.358246,1285.077026 
	C309.639069,1279.037598 298.605774,1270.516968 288.540527,1260.885864 
	C273.712585,1246.697632 262.281677,1230.044922 253.962402,1211.180664 
	C245.651489,1192.335205 241.741745,1172.537109 241.217484,1152.179321 
	C240.961792,1142.250488 241.829117,1131.962524 244.280533,1122.372070 
	C247.888550,1108.256836 252.084641,1093.994141 258.436096,1080.967285 
	C264.015381,1069.524292 272.581665,1059.448975 280.407166,1049.211670 
	C290.940979,1035.431030 304.859375,1025.443115 319.848755,1017.130249 
	C337.546783,1007.315308 356.353027,1000.727539 376.759460,998.841064 
	C394.469482,997.203979 412.121826,996.957581 429.236328,1001.852722 
	C443.567322,1005.951721 457.430634,1011.685852 472.222168,1016.952759 
	C510.367249,950.875122 549.192871,883.618530 588.015808,816.366699 
	C508.059082,769.469666 414.702240,754.077332 326.286072,770.179138 
	C233.866547,787.010071 157.070862,831.730530 96.875366,903.836304 
	C41.653191,969.984680 11.991587,1046.927734 8.338253,1132.740234 
	C3.884388,1237.356201 37.024223,1329.800537 106.300613,1408.454102 
	C202.383072,1517.542358 381.874451,1582.904419 560.967285,1499.228149 
	C636.154968,1464.098755 693.437866,1408.684692 733.435059,1335.929321 
	C765.151184,1278.237305 780.462280,1216.175415 780.802063,1150.381104 
	C702.635925,1150.381104 624.922302,1150.381104 547.061523,1150.381104 
	C547.452026,1168.493896 543.952637,1185.518555 538.085388,1202.208862 
	C528.474915,1229.546753 512.058533,1252.004517 489.513977,1269.884155 
	C459.573669,1293.629272 425.508301,1305.409302 387.079803,1302.897339 
	C377.319672,1302.259277 367.342438,1301.391113 358.004639,1298.732910 
	C346.043884,1295.328125 334.629089,1290.005493 322.358246,1285.077026 
M1103.581787,1663.115234 
	C1102.223877,1665.405151 1100.780640,1667.649292 1099.521240,1669.992188 
	C1087.745239,1691.898071 1084.900146,1715.944580 1084.194946,1740.112915 
	C1083.195068,1774.378906 1083.504395,1808.710571 1087.108276,1842.851807 
	C1089.025879,1861.017578 1091.803345,1879.136719 1095.164429,1897.094971 
	C1099.548340,1920.517944 1113.364136,1935.947266 1136.342529,1943.427368 
	C1158.122681,1950.517334 1180.575562,1953.018066 1203.190674,1953.811401 
	C1220.629150,1954.423096 1238.129639,1953.434814 1255.597900,1952.975708 
	C1273.123169,1952.515259 1290.401611,1950.235474 1307.378052,1945.678223 
	C1328.137329,1940.105591 1342.199341,1927.866821 1348.334229,1906.749146 
	C1354.539917,1885.387817 1355.666260,1863.535278 1355.992432,1841.535034 
	C1356.045166,1837.973755 1354.146729,1836.979614 1350.956787,1836.988770 
	C1333.628662,1837.039062 1316.299927,1837.058105 1298.971924,1836.977661 
	C1295.304321,1836.960693 1293.903198,1838.540649 1293.977417,1842.105469 
	C1294.098633,1847.934448 1294.343872,1853.792236 1293.935059,1859.595581 
	C1292.216675,1883.988037 1285.151855,1895.223145 1261.027588,1898.240967 
	C1253.779541,1899.147583 1246.452637,1899.405518 1239.182617,1900.160278 
	C1218.472168,1902.310669 1197.942139,1900.896484 1177.612183,1896.782104 
	C1160.739868,1893.367554 1154.026978,1885.486450 1150.751221,1868.916260 
	C1145.056519,1840.109131 1146.628784,1810.894775 1145.148315,1781.861572 
	C1144.574097,1770.601318 1145.235107,1759.222412 1146.111694,1747.958130 
	C1147.155151,1734.551758 1148.655640,1721.153198 1150.663330,1707.857666 
	C1152.548462,1695.375244 1160.150635,1688.120483 1172.614624,1684.963745 
	C1195.894043,1679.067505 1219.514893,1679.705078 1243.135742,1680.297119 
	C1250.572266,1680.483521 1258.022827,1681.881958 1265.376465,1683.222168 
	C1278.409424,1685.596924 1286.645874,1693.315430 1288.725098,1706.547729 
	C1289.985352,1714.569214 1290.497925,1722.731323 1290.932251,1730.852417 
	C1291.300903,1737.744385 1291.225464,1737.984619 1297.923462,1737.992920 
	C1314.085571,1738.012939 1330.247681,1738.014404 1346.409790,1737.991577 
	C1352.678345,1737.982788 1352.557861,1737.951416 1352.147339,1731.515381 
	C1351.882446,1727.365601 1352.406006,1723.146118 1351.931519,1719.032349 
	C1350.410522,1705.845825 1349.572021,1692.472412 1346.666992,1679.577393 
	C1341.577271,1656.985229 1328.241577,1641.436890 1305.158569,1634.741577 
	C1289.015869,1630.059326 1272.606934,1627.521606 1255.967041,1627.163452 
	C1237.844482,1626.773315 1219.690308,1627.507690 1201.557739,1628.025391 
	C1182.854858,1628.559082 1164.419556,1631.255859 1146.364258,1636.191528 
	C1129.666138,1640.756348 1114.388916,1647.753906 1103.581787,1663.115234 
z"/>
<path fill="#FF0101" opacity="1.000000" stroke="none" 
	d="
M829.562500,0.999999 
	C830.922180,1.665658 831.818481,2.868303 832.770447,2.914104 
	C842.531372,3.383713 852.362488,3.095511 862.054199,4.135204 
	C876.190063,5.651652 890.409790,7.264220 904.260010,10.339163 
	C920.900513,14.033619 937.376099,18.738220 953.588562,24.030315 
	C977.064941,31.693537 999.269531,42.281242 1020.641968,54.769169 
	C1041.195190,66.778419 1060.380737,80.517982 1078.513916,95.907600 
	C1110.921875,123.411957 1137.411499,155.744522 1159.099609,192.214249 
	C1175.035645,219.011505 1187.908203,247.206329 1196.316895,277.145416 
	C1201.765015,296.542603 1205.301514,316.521271 1208.846680,336.390686 
	C1210.802368,347.350983 1211.054810,358.619690 1211.980835,369.757233 
	C1212.432129,375.182129 1212.955566,380.625305 1212.950073,386.059662 
	C1212.927002,408.981628 1211.066772,431.726105 1207.157959,454.362457 
	C1203.654907,474.649719 1198.697144,494.501495 1192.038940,513.942688 
	C1181.793701,543.858643 1168.747070,572.501709 1150.736328,598.554321 
	C1139.867065,614.276489 1128.346069,629.643921 1116.009766,644.233826 
	C1096.668091,667.108826 1074.618164,687.230469 1049.705933,704.036072 
	C1040.916626,709.965332 1031.976196,715.671509 1023.067139,721.421448 
	C1021.867004,722.196106 1020.446716,722.629761 1018.868286,723.338013 
	C980.015564,656.023865 941.313904,588.971436 902.450623,521.638916 
	C944.928589,495.742798 970.831238,458.777924 977.756897,410.055359 
	C983.874268,367.019196 973.491943,327.411804 945.790161,293.506958 
	C912.368774,252.601486 868.584656,233.036224 815.876709,236.241470 
	C773.705261,238.805969 738.033264,256.963104 710.710693,289.119934 
	C680.091797,325.156250 667.860229,367.090637 675.961060,414.246368 
	C684.051819,461.343628 709.536133,496.512024 750.426636,521.646545 
	C745.250916,530.674438 740.196960,539.564697 735.071106,548.413208 
	C727.136963,562.109497 719.100098,575.746460 711.205200,589.465149 
	C701.928345,605.585266 692.797302,621.789185 683.527100,637.913025 
	C675.315308,652.195984 666.982727,666.409424 658.734497,680.671387 
	C650.974182,694.089661 643.317322,707.568726 635.392151,720.888489 
	C634.786743,721.906006 631.801697,722.768005 630.946228,722.189331 
	C615.538452,711.765991 599.598328,701.959900 585.193481,690.270264 
	C569.934265,677.887329 555.630615,664.189575 541.885803,650.112915 
	C525.378113,633.206604 511.486359,614.102905 498.977844,594.013916 
	C476.906158,558.566162 460.703003,520.669495 451.012543,480.029999 
	C446.609161,461.563416 442.913483,442.962036 442.016846,423.941315 
	C441.214111,406.913208 439.526489,389.826111 440.228943,372.847778 
	C441.913788,332.126526 449.781769,292.430817 464.111847,254.208344 
	C473.402740,229.426758 484.853424,205.646927 499.147430,183.269882 
	C511.707642,163.607071 525.778625,145.201950 541.456665,127.886314 
	C567.380188,99.255150 597.153809,75.568451 630.295227,55.909954 
	C654.964661,41.276791 680.952209,29.656208 708.252563,20.909027 
	C727.837524,14.633918 747.787170,10.017351 768.128967,6.933707 
	C785.114441,4.358848 802.126648,2.605214 819.328064,2.944195 
	C820.669556,2.970631 822.026489,2.213185 823.188110,1.410032 
	C825.041687,1.000000 827.083313,1.000000 829.562500,0.999999 
z"/>
<path fill="#050505" opacity="1.000000" stroke="none" 
	d="
M1609.000000,1629.000000 
	C1609.750000,1628.999023 1610.500000,1628.998169 1612.093628,1628.997559 
	C1629.624878,1628.998535 1646.312378,1628.999268 1663.000000,1629.000000 
	C1663.000000,1633.024536 1663.000000,1637.049072 1662.699219,1641.708984 
	C1661.629272,1643.964355 1660.673096,1645.523071 1660.119385,1647.213501 
	C1649.699829,1679.020874 1639.330444,1710.844604 1628.944580,1742.662964 
	C1621.349609,1765.931152 1613.648804,1789.165283 1606.167480,1812.469971 
	C1592.068481,1856.389893 1578.034912,1900.331055 1564.149536,1944.318848 
	C1562.581055,1949.287842 1560.023926,1951.613159 1554.812378,1951.034302 
	C1552.837769,1950.814941 1550.814575,1950.921143 1548.819946,1951.014526 
	C1542.544922,1951.308350 1536.273071,1951.666626 1530.000000,1952.000000 
	C1519.639771,1952.000000 1509.279419,1952.000000 1498.092651,1951.811401 
	C1487.510742,1951.416870 1477.755371,1951.210815 1468.000000,1951.004883 
	C1468.000000,1951.004883 1467.502441,1951.001953 1467.167114,1950.631348 
	C1465.954346,1947.219727 1465.146973,1944.156494 1464.188965,1941.141113 
	C1445.676147,1882.875732 1427.171265,1824.607666 1408.609985,1766.357666 
	C1395.409302,1724.930786 1382.093262,1683.540771 1368.934570,1642.100586 
	C1367.585327,1637.851685 1366.961914,1633.372437 1366.001709,1629.000000 
	C1366.445801,1628.999268 1366.889893,1628.998413 1368.135620,1628.997681 
	C1377.291504,1628.996948 1385.645752,1628.996094 1394.000000,1628.995117 
	C1396.700073,1628.995850 1399.400024,1628.996704 1403.014648,1628.997559 
	C1408.286255,1628.996948 1412.643066,1628.995972 1417.000000,1628.995117 
	C1417.444458,1628.996460 1417.888916,1628.997803 1419.021118,1629.184692 
	C1425.824097,1629.619141 1429.942139,1631.055542 1432.205078,1638.316284 
	C1443.796997,1675.509399 1456.222290,1712.442749 1468.317993,1749.479370 
	C1477.260132,1776.859985 1486.390503,1804.182617 1494.970337,1831.676880 
	C1501.118042,1851.376343 1506.474731,1871.322144 1512.247437,1891.139648 
	C1512.756348,1892.886719 1513.734131,1894.496948 1515.104126,1897.514038 
	C1516.348755,1893.978882 1517.128052,1892.002930 1517.745117,1889.977661 
	C1529.046143,1852.876099 1540.004761,1815.666504 1551.702515,1778.690552 
	C1564.006226,1739.798950 1577.032959,1701.136230 1589.699951,1662.359253 
	C1593.214966,1651.598877 1596.574219,1640.787842 1600.004883,1630.000000 
	C1600.004883,1630.000000 1600.502441,1629.998047 1601.174438,1629.997803 
	C1604.230957,1629.665039 1606.615479,1629.332520 1609.000000,1629.000000 
z"/>
<path fill="#050505" opacity="1.000000" stroke="none" 
	d="
M393.999390,1725.995239 
	C394.587280,1726.484009 395.175140,1726.972778 395.880310,1728.168213 
	C395.176666,1737.599243 394.071045,1746.329834 395.723358,1755.001709 
	C396.202820,1755.159424 396.682251,1755.317139 397.161713,1755.474731 
	C399.441956,1752.316528 401.722198,1749.158203 404.002441,1746.000000 
	C404.244171,1745.798218 404.472809,1745.582642 405.100372,1745.008057 
	C406.342407,1743.775391 407.172455,1742.887695 408.002441,1742.000000 
	C408.244232,1741.798462 408.472931,1741.583008 409.175812,1741.080200 
	C416.819092,1737.023560 423.670898,1732.428345 431.189026,1729.611694 
	C452.308533,1721.699219 474.147858,1722.864014 495.999298,1725.995117 
	C496.443634,1725.996460 496.887939,1725.997803 497.987244,1726.182007 
	C501.176483,1727.104248 503.887482,1727.488525 506.213348,1728.646484 
	C514.877380,1732.959961 523.414978,1737.527710 532.000000,1742.000000 
	C532.201233,1742.242065 532.416260,1742.471069 532.917725,1743.172363 
	C536.609985,1749.074829 540.446899,1754.280762 543.328796,1759.970459 
	C546.070923,1765.384155 547.815491,1771.303101 549.998657,1777.000000 
	C549.999939,1777.444458 550.001221,1777.888916 550.044678,1779.068359 
	C551.717712,1792.282227 554.378296,1804.729370 554.766724,1817.246948 
	C555.594604,1843.923584 555.816895,1870.672607 550.004639,1897.000000 
	C550.002930,1897.444458 550.001282,1897.888916 549.796692,1898.966431 
	C548.959473,1901.476685 548.276672,1903.338989 547.699036,1905.233398 
	C544.231384,1916.604126 539.796814,1927.448853 530.752747,1935.693604 
	C527.946838,1938.251709 524.923401,1940.571289 521.999573,1943.000000 
	C521.999573,1943.000000 522.000000,1943.000000 521.648804,1943.085449 
	C515.886780,1945.274536 510.584229,1947.735840 505.044495,1949.413940 
	C489.240356,1954.201172 472.896729,1955.140259 456.632751,1953.772827 
	C441.157532,1952.471924 425.940430,1949.096436 413.569153,1938.603271 
	C409.418610,1935.082764 405.840790,1930.887085 402.001221,1927.000000 
	C401.799713,1926.757935 401.584442,1926.528931 401.093842,1925.874756 
	C400.334625,1924.922607 399.836945,1924.408447 399.339294,1923.894409 
	C398.895874,1924.596313 398.452423,1925.298096 398.008972,1926.000000 
	C398.005981,1966.687622 398.002991,2007.375122 398.000000,2048.531250 
	C379.645782,2049.000000 361.291534,2049.000000 342.376709,2048.592529 
	C341.544495,2045.046509 341.036774,2041.907959 341.035492,2038.769287 
	C340.993286,1935.179565 340.999603,1831.589722 340.998779,1728.000000 
	C341.509521,1727.441895 342.020325,1726.883789 343.234253,1726.162842 
	C360.624725,1725.998413 377.312042,1725.996826 393.999390,1725.995239 
M459.996674,1766.301392 
	C452.338287,1766.222900 444.648407,1765.660645 437.027374,1766.156250 
	C413.925690,1767.658447 403.781738,1777.308228 400.063110,1800.283569 
	C397.205292,1817.940674 396.991364,1835.696411 398.084625,1853.463623 
	C398.685822,1863.233643 399.515930,1873.074463 401.392426,1882.658203 
	C403.435913,1893.094971 408.237366,1902.518188 418.910736,1906.671753 
	C438.478851,1914.286743 458.359863,1913.713379 478.130737,1907.268799 
	C484.051300,1905.339111 488.338013,1901.226440 491.223816,1895.608398 
	C496.384521,1885.562012 497.553162,1874.701416 498.220612,1863.673096 
	C499.702179,1839.191406 500.158264,1814.752441 494.792145,1790.620239 
	C492.537476,1780.480469 486.539917,1773.198608 476.418701,1770.051514 
	C471.360687,1768.478638 466.072235,1767.646729 459.996674,1766.301392 
z"/>
<path fill="#000000" opacity="1.000000" stroke="none" 
	d="
M1530.367310,1952.187988 
	C1536.273071,1951.666626 1542.544922,1951.308350 1548.819946,1951.014526 
	C1550.814575,1950.921143 1552.837769,1950.814941 1554.812378,1951.034302 
	C1560.023926,1951.613159 1562.581055,1949.287842 1564.149536,1944.318848 
	C1578.034912,1900.331055 1592.068481,1856.389893 1606.167480,1812.469971 
	C1613.648804,1789.165283 1621.349609,1765.931152 1628.944580,1742.662964 
	C1639.330444,1710.844604 1649.699829,1679.020874 1660.119385,1647.213501 
	C1660.673096,1645.523071 1661.629272,1643.964355 1662.699219,1642.172241 
	C1663.000000,1644.041626 1663.000000,1646.083374 1663.000000,1648.562500 
	C1661.959839,1650.622070 1660.516968,1652.112915 1659.939453,1653.885742 
	C1650.036255,1684.286743 1640.285156,1714.737183 1630.406616,1745.146240 
	C1622.639404,1769.056274 1614.636230,1792.890015 1606.936279,1816.821655 
	C1599.288574,1840.590942 1591.927490,1864.452393 1584.367188,1888.250122 
	C1578.318604,1907.290161 1572.230469,1926.318237 1566.014160,1945.303955 
	C1563.726318,1952.291138 1562.480713,1953.064575 1555.152710,1952.974854 
	C1547.012207,1952.875244 1538.873901,1952.583740 1530.367310,1952.187988 
z"/>
<path fill="#000000" opacity="1.000000" stroke="none" 
	d="
M340.681030,1728.211914 
	C340.999603,1831.589722 340.993286,1935.179565 341.035492,2038.769287 
	C341.036774,2041.907959 341.544495,2045.046509 341.908051,2048.592529 
	C341.250000,2049.000000 340.500000,2049.000000 339.375000,2049.000000 
	C339.000031,1944.677856 338.990417,1840.355835 339.057037,1736.033691 
	C339.058655,1733.496826 339.908875,1730.960327 340.681030,1728.211914 
z"/>
<path fill="#000000" opacity="1.000000" stroke="none" 
	d="
M1663.000000,1628.666748 
	C1646.312378,1628.999268 1629.624878,1628.998535 1612.468628,1628.996460 
	C1614.081421,1628.330444 1616.156494,1627.114014 1618.245239,1627.089966 
	C1632.849609,1626.921753 1647.456543,1627.000366 1662.531372,1627.000000 
	C1663.000000,1627.444458 1663.000000,1627.888916 1663.000000,1628.666748 
z"/>
<path fill="#0101FF" opacity="1.000000" stroke="none" 
	d="
M1114.000000,1156.897095 
	C1115.192139,1175.940063 1119.012695,1193.872070 1126.463745,1210.988159 
	C1135.381836,1231.474121 1148.106934,1249.238525 1164.703125,1264.132080 
	C1181.833008,1279.504639 1201.355225,1290.698486 1223.601807,1297.081299 
	C1235.791870,1300.579102 1248.076782,1302.555420 1260.792603,1303.194458 
	C1277.353760,1304.026855 1293.317383,1301.833740 1309.179688,1297.444214 
	C1328.491333,1292.100220 1345.946899,1282.996460 1361.508057,1270.656494 
	C1382.314453,1254.157104 1398.009888,1233.589722 1408.165283,1208.820801 
	C1413.402832,1196.046143 1416.967529,1182.864380 1418.855469,1169.319580 
	C1421.587036,1149.722168 1419.792236,1130.282104 1414.599976,1111.184326 
	C1408.555298,1088.951904 1398.058472,1069.159546 1383.167603,1051.469727 
	C1371.785767,1037.948364 1358.098511,1027.437988 1342.917114,1017.618958 
	C1381.739502,950.370667 1420.515503,883.202820 1459.617188,815.470581 
	C1515.711426,848.137939 1560.973145,891.544800 1595.021484,946.422974 
	C1638.244873,1016.089050 1657.725952,1092.310547 1652.626831,1173.873657 
	C1646.496582,1271.933472 1608.205933,1356.692505 1538.277222,1425.769775 
	C1476.226929,1487.064819 1401.083740,1523.477783 1314.196167,1533.883667 
	C1215.371582,1545.718994 1124.671509,1522.955933 1043.397095,1465.636353 
	C962.157471,1408.341675 910.592957,1330.078003 889.458740,1233.286133 
	C850.984741,1057.080688 939.021790,891.101135 1074.363037,815.788269 
	C1113.154907,882.971191 1151.951782,950.163025 1190.796509,1017.437561 
	C1140.007202,1049.861694 1113.344360,1095.600708 1114.000000,1156.897095 
z"/>
<path fill="#01FF01" opacity="1.000000" stroke="none" 
	d="
M322.668640,1285.293091 
	C334.629089,1290.005493 346.043884,1295.328125 358.004639,1298.732910 
	C367.342438,1301.391113 377.319672,1302.259277 387.079803,1302.897339 
	C425.508301,1305.409302 459.573669,1293.629272 489.513977,1269.884155 
	C512.058533,1252.004517 528.474915,1229.546753 538.085388,1202.208862 
	C543.952637,1185.518555 547.452026,1168.493896 547.061523,1150.381104 
	C624.922302,1150.381104 702.635925,1150.381104 780.802063,1150.381104 
	C780.462280,1216.175415 765.151184,1278.237305 733.435059,1335.929321 
	C693.437866,1408.684692 636.154968,1464.098755 560.967285,1499.228149 
	C381.874451,1582.904419 202.383072,1517.542358 106.300613,1408.454102 
	C37.024223,1329.800537 3.884388,1237.356201 8.338253,1132.740234 
	C11.991587,1046.927734 41.653191,969.984680 96.875366,903.836304 
	C157.070862,831.730530 233.866547,787.010071 326.286072,770.179138 
	C414.702240,754.077332 508.059082,769.469666 588.015808,816.366699 
	C549.192871,883.618530 510.367249,950.875122 472.222168,1016.952759 
	C457.430634,1011.685852 443.567322,1005.951721 429.236328,1001.852722 
	C412.121826,996.957581 394.469482,997.203979 376.759460,998.841064 
	C356.353027,1000.727539 337.546783,1007.315308 319.848755,1017.130249 
	C304.859375,1025.443115 290.940979,1035.431030 280.407166,1049.211670 
	C272.581665,1059.448975 264.015381,1069.524292 258.436096,1080.967285 
	C252.084641,1093.994141 247.888550,1108.256836 244.280533,1122.372070 
	C241.829117,1131.962524 240.961792,1142.250488 241.217484,1152.179321 
	C241.741745,1172.537109 245.651489,1192.335205 253.962402,1211.180664 
	C262.281677,1230.044922 273.712585,1246.697632 288.540527,1260.885864 
	C298.605774,1270.516968 309.639069,1279.037598 322.668640,1285.293091 
z"/>
<path fill="#050505" opacity="1.000000" stroke="none" 
	d="
M30.995979,1670.000000 
	C31.613008,1668.552979 32.230049,1667.106079 33.188560,1665.126465 
	C35.687366,1661.395874 37.844707,1658.197998 40.002045,1655.000000 
	C41.218395,1653.842896 42.434742,1652.685791 44.136971,1651.178223 
	C45.748947,1649.885254 46.875050,1648.942627 48.001144,1648.000000 
	C48.001133,1648.000000 48.000000,1648.000000 48.345833,1647.916016 
	C53.896816,1645.245239 58.976707,1642.358521 64.328812,1640.123535 
	C87.450768,1630.468872 112.099991,1628.187134 136.641022,1627.274902 
	C168.189209,1626.102173 199.869858,1625.850098 230.999329,1632.995117 
	C231.443695,1632.996582 231.888077,1632.997925 232.965485,1633.201904 
	C240.065460,1635.601440 246.532379,1637.798218 252.999298,1639.995117 
	C253.792801,1640.284180 254.586288,1640.573242 255.935852,1641.159180 
	C260.661011,1643.970703 264.830078,1646.485352 268.999146,1649.000000 
	C268.999115,1649.000000 269.000000,1649.000000 269.183533,1649.275391 
	C271.910950,1652.033936 274.454865,1654.516968 276.998779,1657.000000 
	C276.998779,1657.000000 277.000000,1657.000000 277.095703,1657.334839 
	C284.774689,1669.597534 289.992584,1682.492432 292.775330,1696.340942 
	C297.472412,1719.716187 299.863586,1743.332153 300.042267,1767.179077 
	C300.061829,1769.788330 300.665924,1772.393188 300.998901,1775.000000 
	C301.000214,1777.041626 301.001526,1779.083374 301.001282,1781.812500 
	C300.998657,1782.666626 300.997498,1782.833374 300.676880,1783.154053 
	C297.047302,1787.398682 297.178284,1789.180664 300.997467,1792.333252 
	C301.000549,1793.111084 301.002533,1793.555542 301.004486,1794.000000 
	C301.002960,1795.066650 301.001434,1796.133423 300.811096,1797.967163 
	C300.414825,1801.373779 300.178680,1804.011597 300.004639,1806.653198 
	C298.835327,1824.401367 298.208466,1842.205078 296.378937,1859.884399 
	C294.299469,1879.978882 290.272644,1899.728271 280.998779,1918.000000 
	C280.998779,1918.000000 281.000000,1918.000000 280.737610,1918.200439 
	C279.316406,1920.267212 278.157623,1922.133667 276.998779,1924.000000 
	C276.998779,1924.000000 277.000000,1924.000000 276.743683,1924.168457 
	C275.657806,1925.224609 274.828278,1926.112305 273.998749,1927.000000 
	C273.998779,1927.000000 274.000000,1927.000000 273.735168,1927.174805 
	C272.313171,1928.566406 271.156006,1929.783203 269.998840,1931.000000 
	C269.998779,1931.000000 270.000000,1931.000000 269.701050,1931.081787 
	C268.600861,1931.775635 267.799591,1932.387817 266.998352,1933.000000 
	C266.146149,1933.530151 265.293915,1934.060425 263.883240,1934.892578 
	C253.549454,1939.129883 243.774170,1943.064941 233.998871,1947.000000 
	C233.554550,1947.000977 233.110260,1947.001831 231.931839,1947.044678 
	C207.707397,1952.070435 183.918411,1953.750000 159.947769,1954.074341 
	C136.130676,1954.396484 112.485481,1952.997803 89.000687,1949.004883 
	C88.556282,1949.003540 88.111870,1949.002197 87.019333,1948.811890 
	C82.227821,1947.410645 78.101639,1946.135498 73.938263,1944.996338 
	C48.342339,1937.993164 32.169498,1921.771240 24.952019,1896.141113 
	C18.049467,1871.629395 15.787226,1846.590942 14.966261,1821.310669 
	C14.886871,1818.865967 14.334148,1816.436523 14.001154,1814.000000 
	C14.000427,1807.312378 13.999698,1800.624634 14.187978,1793.101562 
	C14.566046,1791.459473 14.892929,1790.658081 14.923931,1789.845459 
	C15.634105,1771.231079 16.312016,1752.615356 16.995941,1734.000000 
	C16.997185,1733.555542 16.998425,1733.111084 17.185232,1731.982422 
	C20.239691,1710.493774 22.917019,1689.646484 30.995979,1670.000000 
M75.999695,1798.500000 
	C76.685738,1815.944336 76.847992,1833.431396 78.265976,1850.816040 
	C79.042641,1860.338013 81.389992,1869.846313 84.056313,1879.063477 
	C86.166847,1886.359741 91.358635,1891.455322 99.023209,1893.907959 
	C114.248734,1898.779907 129.965088,1900.385254 145.765137,1900.867798 
	C157.048920,1901.212280 168.407745,1900.791138 179.663544,1899.865967 
	C190.067337,1899.010620 200.530716,1897.695068 210.690887,1895.371338 
	C222.467651,1892.677856 229.723572,1885.070435 232.699203,1872.805908 
	C237.852951,1851.564209 238.148636,1829.914795 238.804718,1808.354614 
	C239.396271,1788.915527 238.964172,1769.388184 237.799454,1749.970825 
	C236.876968,1734.592041 234.333847,1719.296387 232.176910,1704.010864 
	C230.867828,1694.734009 224.658554,1688.677368 216.109512,1686.785278 
	C202.371857,1683.745117 188.369125,1681.110352 174.362183,1680.291016 
	C158.800140,1679.380737 143.080658,1680.256226 127.483017,1681.218262 
	C118.905632,1681.747437 110.313713,1683.568115 101.957481,1685.703125 
	C94.388084,1687.637207 87.433014,1691.548340 84.616440,1699.437256 
	C82.449158,1705.507446 80.588898,1711.954102 80.172897,1718.336304 
	C78.454262,1744.702881 77.337593,1771.108643 75.999695,1798.500000 
z"/>
<path fill="#050505" opacity="1.000000" stroke="none" 
	d="
M1103.783936,1662.817871 
	C1114.388916,1647.753906 1129.666138,1640.756348 1146.364258,1636.191528 
	C1164.419556,1631.255859 1182.854858,1628.559082 1201.557739,1628.025391 
	C1219.690308,1627.507690 1237.844482,1626.773315 1255.967041,1627.163452 
	C1272.606934,1627.521606 1289.015869,1630.059326 1305.158569,1634.741577 
	C1328.241577,1641.436890 1341.577271,1656.985229 1346.666992,1679.577393 
	C1349.572021,1692.472412 1350.410522,1705.845825 1351.931519,1719.032349 
	C1352.406006,1723.146118 1351.882446,1727.365601 1352.147339,1731.515381 
	C1352.557861,1737.951416 1352.678345,1737.982788 1346.409790,1737.991577 
	C1330.247681,1738.014404 1314.085571,1738.012939 1297.923462,1737.992920 
	C1291.225464,1737.984619 1291.300903,1737.744385 1290.932251,1730.852417 
	C1290.497925,1722.731323 1289.985352,1714.569214 1288.725098,1706.547729 
	C1286.645874,1693.315430 1278.409424,1685.596924 1265.376465,1683.222168 
	C1258.022827,1681.881958 1250.572266,1680.483521 1243.135742,1680.297119 
	C1219.514893,1679.705078 1195.894043,1679.067505 1172.614624,1684.963745 
	C1160.150635,1688.120483 1152.548462,1695.375244 1150.663330,1707.857666 
	C1148.655640,1721.153198 1147.155151,1734.551758 1146.111694,1747.958130 
	C1145.235107,1759.222412 1144.574097,1770.601318 1145.148315,1781.861572 
	C1146.628784,1810.894775 1145.056519,1840.109131 1150.751221,1868.916260 
	C1154.026978,1885.486450 1160.739868,1893.367554 1177.612183,1896.782104 
	C1197.942139,1900.896484 1218.472168,1902.310669 1239.182617,1900.160278 
	C1246.452637,1899.405518 1253.779541,1899.147583 1261.027588,1898.240967 
	C1285.151855,1895.223145 1292.216675,1883.988037 1293.935059,1859.595581 
	C1294.343872,1853.792236 1294.098633,1847.934448 1293.977417,1842.105469 
	C1293.903198,1838.540649 1295.304321,1836.960693 1298.971924,1836.977661 
	C1316.299927,1837.058105 1333.628662,1837.039062 1350.956787,1836.988770 
	C1354.146729,1836.979614 1356.045166,1837.973755 1355.992432,1841.535034 
	C1355.666260,1863.535278 1354.539917,1885.387817 1348.334229,1906.749146 
	C1342.199341,1927.866821 1328.137329,1940.105591 1307.378052,1945.678223 
	C1290.401611,1950.235474 1273.123169,1952.515259 1255.597900,1952.975708 
	C1238.129639,1953.434814 1220.629150,1954.423096 1203.190674,1953.811401 
	C1180.575562,1953.018066 1158.122681,1950.517334 1136.342529,1943.427368 
	C1113.364136,1935.947266 1099.548340,1920.517944 1095.164429,1897.094971 
	C1091.803345,1879.136719 1089.025879,1861.017578 1087.108276,1842.851807 
	C1083.504395,1808.710571 1083.195068,1774.378906 1084.194946,1740.112915 
	C1084.900146,1715.944580 1087.745239,1691.898071 1099.521240,1669.992188 
	C1100.780640,1667.649292 1102.223877,1665.405151 1103.783936,1662.817871 
z"/>
<path fill="#050505" opacity="1.000000" stroke="none" 
	d="
M593.001831,1898.000000 
	C593.000427,1897.555542 592.999023,1897.111084 592.963989,1896.013306 
	C592.620972,1894.573364 592.311584,1893.786621 592.002197,1893.000000 
	C592.000793,1892.555542 591.999390,1892.111084 591.979614,1890.912354 
	C588.135559,1866.446167 587.208801,1842.542236 588.164124,1818.613037 
	C588.599548,1807.708374 590.667603,1796.869019 591.995117,1786.000000 
	C591.996887,1785.250000 591.998657,1784.500000 592.189270,1783.060425 
	C594.586182,1775.247192 596.794312,1768.123657 599.002441,1761.000000 
	C599.619385,1759.878174 600.236267,1758.756470 601.191040,1757.114380 
	C603.686462,1753.396118 605.844116,1750.197998 608.001831,1747.000000 
	C608.001831,1747.000000 608.000000,1747.000000 608.264526,1746.825439 
	C609.686829,1745.433838 610.844666,1744.216919 612.002441,1743.000000 
	C613.208679,1742.168335 614.414856,1741.336548 616.147827,1740.155518 
	C625.744934,1736.133179 634.515015,1731.082764 643.938232,1729.029175 
	C681.950378,1720.744751 719.817627,1720.911011 757.000000,1733.995117 
	C757.000000,1733.995117 757.498779,1733.997925 757.949768,1734.260010 
	C759.933838,1735.348022 761.466919,1736.174072 763.189087,1737.244629 
	C764.252075,1737.992920 765.126038,1738.496460 766.189270,1739.277100 
	C769.919067,1743.036011 773.459534,1746.518066 777.000000,1750.000000 
	C777.201111,1750.242065 777.416077,1750.471069 777.903503,1751.142090 
	C778.773865,1752.398071 779.385681,1753.198975 779.997559,1754.000000 
	C780.567200,1755.464844 781.136841,1756.929688 781.940552,1759.050659 
	C783.840820,1764.379883 785.688721,1768.997192 787.140564,1773.735962 
	C792.439514,1791.031982 792.662842,1808.963013 793.607117,1826.804565 
	C793.946167,1833.209595 794.527405,1839.601929 794.998047,1846.000000 
	C794.780212,1846.821167 794.562378,1847.642456 793.703369,1848.732910 
	C745.798218,1849.001465 698.534363,1848.999634 651.270447,1849.001099 
	C643.599854,1849.001343 643.639404,1849.006714 643.952759,1856.785278 
	C644.079895,1859.942627 643.754517,1863.131470 644.059021,1866.264893 
	C644.505859,1870.862671 645.333313,1875.423462 645.998535,1880.000000 
	C645.999878,1880.444458 646.001160,1880.888916 646.017883,1882.065430 
	C648.355530,1888.198242 650.677795,1893.599121 653.096436,1899.327637 
	C657.758545,1906.199707 664.614868,1908.577759 671.999329,1909.995117 
	C672.443787,1909.996460 672.888245,1909.997803 674.017334,1910.184692 
	C677.306580,1910.780518 679.924622,1911.611328 682.513428,1911.528687 
	C694.013672,1911.162109 705.505615,1910.533813 717.000549,1910.000000 
	C717.445007,1909.999146 717.889465,1909.998291 719.051270,1909.958496 
	C729.800171,1908.377930 736.804688,1903.362793 738.668030,1892.883301 
	C739.421814,1888.644165 739.571655,1884.297607 739.996338,1880.000000 
	C740.199158,1879.756958 740.415710,1879.526855 741.291931,1879.153809 
	C757.022644,1878.999390 772.107483,1878.975708 787.192139,1879.014771 
	C793.347656,1879.030640 794.671448,1879.794434 793.831604,1885.910522 
	C792.443909,1896.016479 790.002380,1905.977783 788.004883,1916.000000 
	C787.715210,1916.793579 787.425659,1917.587158 786.802551,1918.895508 
	C784.311829,1922.606812 782.154663,1925.803467 779.997559,1929.000000 
	C779.110718,1929.829712 778.223755,1930.659302 776.839111,1931.840576 
	C772.893677,1934.794800 769.445984,1937.397461 765.998169,1940.000000 
	C765.483032,1940.221436 764.967896,1940.442993 763.875183,1940.917725 
	C755.864807,1944.114014 748.432007,1947.057007 740.999207,1950.000000 
	C740.554810,1950.000977 740.110413,1950.001831 738.930664,1950.044922 
	C730.309143,1951.130859 722.446838,1952.428711 714.532349,1953.168335 
	C694.458252,1955.044434 674.297668,1954.971191 654.537537,1951.122559 
	C642.107788,1948.701660 630.162598,1943.792847 617.798340,1939.736328 
	C613.731079,1935.981812 609.865540,1932.490845 605.909302,1928.675171 
	C604.545715,1926.566895 603.272827,1924.783447 601.914551,1922.647461 
	C598.886658,1914.196533 595.944214,1906.098267 593.001831,1898.000000 
M667.536682,1767.873657 
	C653.652100,1770.310791 646.454956,1778.997681 644.630920,1792.573120 
	C643.945190,1797.676514 643.398376,1802.809326 643.065674,1807.946655 
	C642.650208,1814.362671 643.353577,1814.989258 650.011414,1814.993286 
	C675.168396,1815.008179 700.325317,1815.001465 725.482300,1814.997925 
	C728.980774,1814.997437 732.548584,1815.368286 735.946045,1814.775146 
	C737.459900,1814.510986 739.780090,1812.271729 739.768188,1810.946533 
	C739.698547,1803.151245 739.640747,1795.269287 738.450134,1787.591675 
	C736.841187,1777.217041 730.512634,1770.654907 719.965393,1768.479492 
	C702.805176,1764.939941 685.601440,1765.072754 667.536682,1767.873657 
z"/>
<path fill="#050505" opacity="1.000000" stroke="none" 
	d="
M903.993347,1743.000000 
	C904.196411,1742.756592 904.413513,1742.526367 905.152222,1742.057373 
	C910.230835,1738.808716 914.547180,1735.293945 919.415283,1732.902710 
	C944.662415,1720.500854 970.882812,1721.827393 997.250916,1728.323242 
	C1009.345581,1731.302734 1019.161255,1738.447632 1028.085938,1747.311035 
	C1029.114624,1748.748169 1030.057251,1749.874146 1031.083984,1751.345703 
	C1033.192871,1755.876953 1035.487305,1759.956299 1037.189697,1764.269043 
	C1041.463379,1775.096313 1042.960938,1786.481201 1042.974854,1798.041382 
	C1043.035034,1848.027588 1043.003174,1898.013794 1043.004883,1948.000000 
	C1042.785156,1948.821167 1042.565430,1949.642334 1041.704224,1950.732910 
	C1024.041992,1951.001465 1007.021301,1951.000732 990.000610,1951.000000 
	C990.000610,1951.000000 990.000000,1951.000000 990.000732,1950.531372 
	C990.000732,1936.472168 990.042664,1922.881470 989.954651,1909.291382 
	C989.941040,1907.192261 989.331482,1905.097046 988.997559,1903.000000 
	C988.997375,1871.645752 988.997192,1840.291504 988.997437,1808.002197 
	C988.991516,1803.745850 989.086487,1800.421021 988.961304,1797.104248 
	C988.407349,1782.432007 981.241150,1771.861328 967.923096,1768.404175 
	C950.638428,1763.917358 933.352478,1764.437622 916.860046,1772.177612 
	C913.966370,1773.535645 911.606079,1776.030273 908.999512,1778.000000 
	C908.999451,1778.000000 909.000000,1778.000000 908.675171,1778.094116 
	C906.899475,1779.792236 905.448547,1781.396118 903.997620,1783.000000 
	C903.997620,1783.000000 904.000000,1783.000000 903.732727,1783.181152 
	C902.642822,1784.574829 901.820190,1785.787476 900.997559,1787.000000 
	C900.719116,1787.486816 900.440552,1787.973633 899.852295,1788.991943 
	C898.605042,1791.457764 897.186340,1793.304321 896.815063,1795.341797 
	C895.363647,1803.306396 893.233337,1811.323120 893.168335,1819.335205 
	C892.815125,1862.887817 893.001709,1906.444580 893.002441,1950.000000 
	C892.799805,1950.242676 892.583557,1950.472534 891.708130,1950.845581 
	C874.375183,1951.002441 857.687683,1951.003174 841.000244,1951.004028 
	C840.757812,1950.801147 840.528320,1950.584595 840.155396,1949.708496 
	C839.998596,1875.041870 839.998108,1801.020874 839.997559,1727.000000 
	C839.997559,1727.000000 839.999512,1726.502441 840.468750,1726.252563 
	C857.958191,1726.003174 874.978455,1726.003784 891.998657,1726.004395 
	C891.998657,1726.004395 892.000000,1726.000000 891.999146,1726.468628 
	C891.998352,1737.879272 891.998352,1748.821289 891.998352,1759.763306 
	C892.300232,1759.928345 892.602051,1760.093262 892.903931,1760.258301 
	C894.603149,1757.172241 896.302429,1754.086060 898.001709,1751.000000 
	C898.001709,1751.000000 898.000000,1751.000000 898.263184,1750.798584 
	C900.348694,1748.064819 902.171021,1745.532349 903.993347,1743.000000 
z"/>
<path fill="#000000" opacity="1.000000" stroke="none" 
	d="
M1599.692261,1630.143555 
	C1596.574219,1640.787842 1593.214966,1651.598877 1589.699951,1662.359253 
	C1577.032959,1701.136230 1564.006226,1739.798950 1551.702515,1778.690552 
	C1540.004761,1815.666504 1529.046143,1852.876099 1517.745117,1889.977661 
	C1517.128052,1892.002930 1516.348755,1893.978882 1515.104126,1897.514038 
	C1513.734131,1894.496948 1512.756348,1892.886719 1512.247437,1891.139648 
	C1506.474731,1871.322144 1501.118042,1851.376343 1494.970337,1831.676880 
	C1486.390503,1804.182617 1477.260132,1776.859985 1468.317993,1749.479370 
	C1456.222290,1712.442749 1443.796997,1675.509399 1432.205078,1638.316284 
	C1429.942139,1631.055542 1425.824097,1629.619141 1419.354492,1629.185059 
	C1427.610962,1626.308228 1430.541870,1627.823364 1433.194092,1636.080444 
	C1441.898926,1663.180176 1450.555054,1690.296265 1459.415771,1717.345215 
	C1468.843994,1746.127075 1478.819946,1774.733643 1487.932617,1803.613647 
	C1496.231567,1829.915039 1503.676392,1856.485474 1511.557495,1882.919434 
	C1512.197632,1885.066284 1513.300415,1887.075317 1514.188232,1889.148315 
	C1514.643555,1889.170898 1515.098877,1889.193481 1515.554321,1889.215942 
	C1516.974121,1884.961914 1518.495239,1880.738647 1519.797241,1876.448853 
	C1527.860962,1849.878540 1535.714844,1823.243164 1543.953369,1796.727417 
	C1551.606079,1772.096558 1559.584595,1747.566040 1567.543457,1723.031494 
	C1575.451782,1698.652588 1583.511353,1674.322998 1591.510742,1649.973633 
	C1593.224609,1644.757080 1594.876343,1639.517334 1596.746338,1634.356934 
	C1597.282715,1632.876587 1598.483398,1631.636963 1599.692261,1630.143555 
z"/>
<path fill="#000000" opacity="1.000000" stroke="none" 
	d="
M1365.695557,1629.098022 
	C1366.961914,1633.372437 1367.585327,1637.851685 1368.934570,1642.100586 
	C1382.093262,1683.540771 1395.409302,1724.930786 1408.609985,1766.357666 
	C1427.171265,1824.607666 1445.676147,1882.875732 1464.188965,1941.141113 
	C1465.146973,1944.156494 1465.954346,1947.219727 1466.918457,1950.630249 
	C1466.026367,1949.747559 1464.595093,1948.641113 1464.137085,1947.220703 
	C1457.346191,1926.161987 1450.676636,1905.063843 1443.994141,1883.970093 
	C1434.595459,1854.302124 1425.250366,1824.617310 1415.807861,1794.963135 
	C1405.356201,1762.140137 1394.809570,1729.347290 1384.325195,1696.534546 
	C1377.640503,1675.613647 1370.953735,1654.693115 1364.427979,1633.722656 
	C1364.028198,1632.437866 1365.036377,1630.715088 1365.695557,1629.098022 
z"/>
<path fill="#000000" opacity="1.000000" stroke="none" 
	d="
M839.680054,1727.211914 
	C839.998108,1801.020874 839.998596,1875.041870 839.998291,1949.531372 
	C839.332458,1948.079102 838.088623,1946.159058 838.085938,1944.237183 
	C837.987061,1873.667358 837.993713,1803.097412 838.060486,1732.527466 
	C838.062134,1730.825806 838.909607,1729.125000 839.680054,1727.211914 
z"/>
<path fill="#000000" opacity="1.000000" stroke="none" 
	d="
M1043.322021,1947.787842 
	C1043.003174,1898.013794 1043.035034,1848.027588 1042.974854,1798.041382 
	C1042.960938,1786.481201 1041.463379,1775.096313 1037.189697,1764.269043 
	C1035.487305,1759.956299 1033.192871,1755.876953 1031.083984,1751.345703 
	C1037.732788,1754.727417 1039.315674,1761.843384 1040.777832,1768.190918 
	C1043.035767,1777.991699 1044.734131,1788.156616 1044.819580,1798.182861 
	C1045.223999,1845.610474 1045.019653,1893.043457 1044.942261,1940.474487 
	C1044.938477,1942.842285 1044.092896,1945.208740 1043.322021,1947.787842 
z"/>
<path fill="#000000" opacity="1.000000" stroke="none" 
	d="
M230.847504,1632.676392 
	C199.869858,1625.850098 168.189209,1626.102173 136.641022,1627.274902 
	C112.099991,1628.187134 87.450768,1630.468872 64.328812,1640.123535 
	C58.976707,1642.358521 53.896816,1645.245239 48.346157,1647.916016 
	C50.358841,1645.988525 52.456768,1643.502075 55.117996,1642.043457 
	C70.722603,1633.490723 87.951088,1630.535889 105.272949,1628.025269 
	C132.065002,1624.142090 159.048035,1624.589355 185.972610,1625.214966 
	C198.548737,1625.507080 211.093582,1627.704102 223.614609,1629.330444 
	C226.064682,1629.648682 228.339828,1631.313843 230.847504,1632.676392 
z"/>
<path fill="#000000" opacity="1.000000" stroke="none" 
	d="
M646.183105,1879.648682 
	C645.333313,1875.423462 644.505859,1870.862671 644.059021,1866.264893 
	C643.754517,1863.131470 644.079895,1859.942627 643.952759,1856.785278 
	C643.639404,1849.006714 643.599854,1849.001343 651.270447,1849.001099 
	C698.534363,1848.999634 745.798218,1849.001465 793.530640,1849.003540 
	C791.578918,1849.669922 789.160156,1850.908325 786.738098,1850.914673 
	C742.804871,1851.031372 698.871216,1851.000000 654.937683,1851.000732 
	C653.440002,1851.000732 651.940186,1851.062378 650.445007,1851.003052 
	C646.925232,1850.863403 645.469604,1852.026733 645.756042,1855.999634 
	C646.314148,1863.739990 646.202209,1871.528687 646.183105,1879.648682 
z"/>
<path fill="#000000" opacity="1.000000" stroke="none" 
	d="
M13.813108,1814.367188 
	C14.334148,1816.436523 14.886871,1818.865967 14.966261,1821.310669 
	C15.787226,1846.590942 18.049467,1871.629395 24.952019,1896.141113 
	C32.169498,1921.771240 48.342339,1937.993164 73.938263,1944.996338 
	C78.101639,1946.135498 82.227821,1947.410645 86.686028,1948.811523 
	C85.724472,1949.176758 84.345634,1949.760254 83.187317,1949.468506 
	C68.772057,1945.837036 54.647682,1941.393433 43.106304,1931.469971 
	C34.280552,1923.881470 29.190754,1913.671265 25.317265,1903.026123 
	C19.325165,1886.558472 16.046844,1869.439453 14.970574,1851.922974 
	C14.329793,1841.494019 13.607911,1831.069702 13.045230,1820.636719 
	C12.939990,1818.685425 13.416839,1816.702637 13.813108,1814.367188 
z"/>
<path fill="#000000" opacity="1.000000" stroke="none" 
	d="
M893.319946,1949.788086 
	C893.001709,1906.444580 892.815125,1862.887817 893.168335,1819.335205 
	C893.233337,1811.323120 895.363647,1803.306396 896.815063,1795.341797 
	C897.186340,1793.304321 898.605042,1791.457764 899.770142,1789.261719 
	C899.882690,1790.267578 899.845947,1791.548096 899.640198,1792.800781 
	C898.112244,1802.101074 895.325073,1811.381104 895.211914,1820.695068 
	C894.718689,1861.284302 895.022766,1901.882935 894.941711,1942.478027 
	C894.937012,1944.844971 894.091675,1947.210205 893.319946,1949.788086 
z"/>
<path fill="#000000" opacity="1.000000" stroke="none" 
	d="
M756.890381,1733.665283 
	C719.817627,1720.911011 681.950378,1720.744751 643.938232,1729.029175 
	C634.515015,1731.082764 625.744934,1736.133179 616.337280,1739.903076 
	C619.206787,1737.588623 622.092712,1734.430054 625.674622,1732.891724 
	C643.480591,1725.244019 662.182983,1721.825195 681.578064,1721.972656 
	C699.052917,1722.105469 716.589050,1721.223755 733.825439,1725.028076 
	C740.152222,1726.424438 746.399292,1728.234375 752.592163,1730.148926 
	C754.166321,1730.635498 755.393860,1732.242920 756.890381,1733.665283 
z"/>
<path fill="#000000" opacity="1.000000" stroke="none" 
	d="
M1027.960205,1746.643799 
	C1019.161255,1738.447632 1009.345581,1731.302734 997.250916,1728.323242 
	C970.882812,1721.827393 944.662415,1720.500854 919.415283,1732.902710 
	C914.547180,1735.293945 910.230835,1738.808716 905.330200,1741.900146 
	C908.151123,1738.934692 910.838806,1735.055786 914.537231,1732.963623 
	C926.801514,1726.026001 939.757568,1721.326172 954.312439,1721.901123 
	C967.714844,1722.430420 981.154724,1721.159668 994.369507,1725.040894 
	C1005.074890,1728.185181 1014.820862,1732.887207 1023.337952,1740.004517 
	C1025.267822,1741.617188 1026.413574,1744.168335 1027.960205,1746.643799 
z"/>
<path fill="#000000" opacity="1.000000" stroke="none" 
	d="
M89.159477,1949.329590 
	C112.485481,1952.997803 136.130676,1954.396484 159.947769,1954.074341 
	C183.918411,1953.750000 207.707397,1952.070435 231.598618,1947.045654 
	C230.481750,1948.063232 229.059631,1949.851807 227.431183,1950.064941 
	C213.620972,1951.873535 199.808167,1953.900757 185.926834,1954.860962 
	C171.860641,1955.834106 157.690689,1956.343384 143.611557,1955.824585 
	C126.889420,1955.208374 110.211479,1953.325684 93.528397,1951.835083 
	C92.071724,1951.704712 90.719193,1950.408691 89.159477,1949.329590 
z"/>
<path fill="#000000" opacity="1.000000" stroke="none" 
	d="
M402.041290,1927.358887 
	C405.840790,1930.887085 409.418610,1935.082764 413.569153,1938.603271 
	C425.940430,1949.096436 441.157532,1952.471924 456.632751,1953.772827 
	C472.896729,1955.140259 489.240356,1954.201172 505.044495,1949.413940 
	C510.584229,1947.735840 515.886780,1945.274536 521.648804,1943.085449 
	C519.054810,1945.023071 516.378601,1947.846436 513.121399,1948.941284 
	C489.175140,1956.991089 464.659576,1958.819092 440.029205,1953.066406 
	C427.566620,1950.155518 415.515594,1945.408203 406.776581,1935.178467 
	C404.888092,1932.967896 403.629883,1930.218750 402.041290,1927.358887 
z"/>
<path fill="#000000" opacity="1.000000" stroke="none" 
	d="
M281.325684,1917.893555 
	C290.272644,1899.728271 294.299469,1879.978882 296.378937,1859.884399 
	C298.208466,1842.205078 298.835327,1824.401367 300.004639,1806.653198 
	C300.178680,1804.011597 300.414825,1801.373779 300.810516,1798.367188 
	C301.313812,1805.916016 302.263947,1813.868896 301.805725,1821.739868 
	C300.968323,1836.124146 300.195221,1850.616089 297.731476,1864.773438 
	C295.070770,1880.062744 290.657562,1895.061157 286.633545,1910.086060 
	C285.880920,1912.896240 283.358307,1915.232300 281.325684,1917.893555 
z"/>
<path fill="#000000" opacity="1.000000" stroke="none" 
	d="
M618.108521,1940.329102 
	C630.162598,1943.792847 642.107788,1948.701660 654.537537,1951.122559 
	C674.297668,1954.971191 694.458252,1955.044434 714.532349,1953.168335 
	C722.446838,1952.428711 730.309143,1951.130859 738.597290,1950.046021 
	C737.730286,1950.944458 736.568298,1952.484741 735.175903,1952.733032 
	C714.777039,1956.369751 694.218079,1957.107178 673.613464,1955.173706 
	C663.048950,1954.182373 652.427429,1953.064697 642.066528,1950.886841 
	C634.829651,1949.365845 627.965759,1946.015381 621.000610,1943.313354 
	C619.895691,1942.884766 619.136292,1941.565552 618.108521,1940.329102 
z"/>
<path fill="#000000" opacity="1.000000" stroke="none" 
	d="
M301.186951,1774.632812 
	C300.665924,1772.393188 300.061829,1769.788330 300.042267,1767.179077 
	C299.863586,1743.332153 297.472412,1719.716187 292.775330,1696.340942 
	C289.992584,1682.492432 284.774689,1669.597534 277.095093,1657.334839 
	C282.833984,1659.819458 284.314331,1665.846924 286.660065,1670.949585 
	C292.393188,1683.421143 295.807587,1696.666504 297.120026,1710.319580 
	C298.977417,1729.641846 300.425781,1749.003906 301.951172,1768.356567 
	C302.104279,1770.299072 301.583221,1772.294678 301.186951,1774.632812 
z"/>
<path fill="#000000" opacity="1.000000" stroke="none" 
	d="
M550.324341,1896.847290 
	C555.816895,1870.672607 555.594604,1843.923584 554.766724,1817.246948 
	C554.378296,1804.729370 551.717712,1792.282227 550.045837,1779.401611 
	C551.296204,1781.719849 553.331177,1784.327148 553.762573,1787.177124 
	C557.613159,1812.611816 558.041565,1838.182129 556.064575,1863.804321 
	C555.425537,1872.086426 554.825989,1880.381958 553.774597,1888.616089 
	C553.419556,1891.396851 551.725952,1894.006714 550.324341,1896.847290 
z"/>
<path fill="#000000" opacity="1.000000" stroke="none" 
	d="
M909.361694,1777.958862 
	C911.606079,1776.030273 913.966370,1773.535645 916.860046,1772.177612 
	C933.352478,1764.437622 950.638428,1763.917358 967.923096,1768.404175 
	C981.241150,1771.861328 988.407349,1782.432007 988.961304,1797.104248 
	C989.086487,1800.421021 988.991516,1803.745850 988.996582,1807.533447 
	C988.330566,1805.913452 987.410645,1803.869629 987.051208,1801.731812 
	C986.147888,1796.357666 986.410889,1790.603638 984.565796,1785.607788 
	C979.982239,1773.197266 969.094299,1769.249146 957.190002,1768.145996 
	C945.890442,1767.098633 934.528809,1767.817139 923.663208,1771.472046 
	C918.839844,1773.094482 914.359802,1775.737671 909.361694,1777.958862 
z"/>
<path fill="#000000" opacity="1.000000" stroke="none" 
	d="
M591.671814,1786.157349 
	C590.667603,1796.869019 588.599548,1807.708374 588.164124,1818.613037 
	C587.208801,1842.542236 588.135559,1866.446167 591.978271,1890.579102 
	C587.209167,1887.357544 588.579468,1881.707275 588.284485,1877.108398 
	C587.082031,1858.361450 586.232056,1839.563721 586.187927,1820.782349 
	C586.164246,1810.697021 587.964661,1800.598633 589.139465,1790.529053 
	C589.310974,1789.058472 590.584717,1787.716309 591.671814,1786.157349 
z"/>
<path fill="#000000" opacity="1.000000" stroke="none" 
	d="
M788.335815,1915.885498 
	C790.002380,1905.977783 792.443909,1896.016479 793.831604,1885.910522 
	C794.671448,1879.794434 793.347656,1879.030640 787.192139,1879.014771 
	C772.107483,1878.975708 757.022644,1878.999390 741.469360,1878.996338 
	C742.756836,1878.331665 744.506836,1877.112183 746.269836,1877.093140 
	C760.590027,1876.937988 774.912903,1877.064087 789.234192,1876.975342 
	C793.758301,1876.947266 796.535706,1878.744873 795.916565,1883.432007 
	C794.658813,1892.953491 793.099426,1902.439331 791.423828,1911.897095 
	C791.174011,1913.307007 789.618347,1914.485474 788.335815,1915.885498 
z"/>
<path fill="#000000" opacity="1.000000" stroke="none" 
	d="
M495.839050,1725.668701 
	C474.147858,1722.864014 452.308533,1721.699219 431.189026,1729.611694 
	C423.670898,1732.428345 416.819092,1737.023560 409.332001,1740.903564 
	C410.651306,1739.236816 412.016541,1737.014404 413.997589,1735.782593 
	C428.555359,1726.730591 444.330292,1721.622681 461.627563,1722.021362 
	C471.246979,1722.243042 480.867493,1722.573608 490.472748,1723.116699 
	C492.244385,1723.216797 493.945251,1724.568359 495.839050,1725.668701 
z"/>
<path fill="#000000" opacity="1.000000" stroke="none" 
	d="
M795.186279,1845.632812 
	C794.527405,1839.601929 793.946167,1833.209595 793.607117,1826.804565 
	C792.662842,1808.963013 792.439514,1791.031982 787.140564,1773.735962 
	C785.688721,1768.997192 783.840820,1764.379883 782.089722,1759.353394 
	C783.403870,1760.709473 785.378784,1762.203735 786.110962,1764.162476 
	C791.927246,1779.722656 794.130676,1795.992432 794.973511,1812.478394 
	C795.431274,1821.432251 795.713928,1830.396240 795.961182,1839.358765 
	C796.015320,1841.320801 795.582825,1843.296387 795.186279,1845.632812 
z"/>
<path fill="#000000" opacity="1.000000" stroke="none" 
	d="
M30.664352,1670.115112 
	C22.917019,1689.646484 20.239691,1710.493774 17.186161,1731.649170 
	C16.677689,1729.905273 15.871958,1727.755005 16.105459,1725.724365 
	C18.167822,1707.790161 21.258286,1690.062500 27.885870,1673.151245 
	C28.325193,1672.030151 29.500006,1671.197144 30.664352,1670.115112 
z"/>
<path fill="#000000" opacity="1.000000" stroke="none" 
	d="
M16.683586,1734.204712 
	C16.312016,1752.615356 15.634105,1771.231079 14.923931,1789.845459 
	C14.892929,1790.658081 14.566046,1791.459473 14.188364,1792.633057 
	C13.667621,1791.229736 12.994635,1789.447632 13.056394,1787.691162 
	C13.638898,1771.124390 14.321467,1754.560669 15.070281,1738.000366 
	C15.125179,1736.786377 15.920274,1735.605591 16.683586,1734.204712 
z"/>
<path fill="#000000" opacity="1.000000" stroke="none" 
	d="
M522.365784,1942.963135 
	C524.923401,1940.571289 527.946838,1938.251709 530.752747,1935.693604 
	C539.796814,1927.448853 544.231384,1916.604126 547.699036,1905.233398 
	C548.276672,1903.338989 548.959473,1901.476685 549.795715,1899.299805 
	C548.774536,1904.540161 548.276367,1910.374756 546.171753,1915.556885 
	C542.237915,1925.243408 537.228516,1934.464111 528.031250,1940.421509 
	C526.406067,1941.474365 524.505432,1942.102173 522.365784,1942.963135 
z"/>
<path fill="#000000" opacity="1.000000" stroke="none" 
	d="
M891.787598,1725.685791 
	C874.978455,1726.003784 857.958191,1726.003174 840.469360,1726.003784 
	C841.579163,1725.340210 843.151672,1724.114868 844.736816,1724.098389 
	C858.987732,1723.949829 873.241089,1723.977173 887.492920,1724.074097 
	C888.857056,1724.083374 890.215454,1724.916504 891.787598,1725.685791 
z"/>
<path fill="#000000" opacity="1.000000" stroke="none" 
	d="
M990.212219,1951.317871 
	C1007.021301,1951.000732 1024.041992,1951.001465 1041.531372,1951.003662 
	C1040.419556,1951.666504 1038.844849,1952.885986 1037.257812,1952.902344 
	C1023.009155,1953.050293 1008.758057,1953.023071 994.508545,1952.926147 
	C993.144104,1952.916992 991.785278,1952.085571 990.212219,1951.317871 
z"/>
<path fill="#000000" opacity="1.000000" stroke="none" 
	d="
M841.212219,1951.321411 
	C857.687683,1951.003174 874.375183,1951.002441 891.531250,1951.002930 
	C890.585510,1951.662842 889.176697,1952.880005 887.756104,1952.894043 
	C873.509277,1953.033936 859.260437,1953.008179 845.012817,1952.916504 
	C843.813904,1952.908813 842.620239,1952.083984 841.212219,1951.321411 
z"/>
<path fill="#000000" opacity="1.000000" stroke="none" 
	d="
M393.787384,1725.677979 
	C377.312042,1725.996826 360.624725,1725.998413 343.468811,1726.000000 
	C344.413696,1725.339966 345.821625,1724.120483 347.241455,1724.106567 
	C361.488678,1723.966187 375.738098,1723.992065 389.986176,1724.083740 
	C391.185303,1724.091431 392.379120,1724.915649 393.787384,1725.677979 
z"/>
<path fill="#000000" opacity="1.000000" stroke="none" 
	d="
M988.810242,1903.367432 
	C989.331482,1905.097046 989.941040,1907.192261 989.954651,1909.291382 
	C990.042664,1922.881470 990.000732,1936.472168 990.001953,1950.531372 
	C989.348755,1949.756836 988.134888,1948.517090 988.127075,1947.269897 
	C988.039001,1933.231079 988.132019,1919.191162 988.202026,1905.151611 
	C988.204346,1904.678711 988.476501,1904.207153 988.810242,1903.367432 
z"/>
<path fill="#000000" opacity="1.000000" stroke="none" 
	d="
M897.684265,1751.087036 
	C896.302429,1754.086060 894.603149,1757.172241 892.903931,1760.258301 
	C892.602051,1760.093262 892.300232,1759.928345 891.998352,1759.763306 
	C891.998352,1748.821289 891.998352,1737.879272 891.997986,1726.468628 
	C892.664124,1727.893433 893.837402,1729.768677 893.905518,1731.683472 
	C894.142700,1738.351440 893.997131,1745.032959 893.997131,1752.098267 
	C894.998596,1751.823608 896.182739,1751.498901 897.684265,1751.087036 
z"/>
<path fill="#000000" opacity="1.000000" stroke="none" 
	d="
M716.648926,1909.815674 
	C705.505615,1910.533813 694.013672,1911.162109 682.513428,1911.528687 
	C679.924622,1911.611328 677.306580,1910.780518 674.350708,1910.185059 
	C675.595886,1909.708130 677.190613,1909.175537 678.789307,1909.163574 
	C689.664917,1909.081909 700.541443,1909.087646 711.417480,1909.125977 
	C713.044617,1909.131714 714.670776,1909.455078 716.648926,1909.815674 
z"/>
<path fill="#000000" opacity="1.000000" stroke="none" 
	d="
M739.686890,1880.200195 
	C739.571655,1884.297607 739.421814,1888.644165 738.668030,1892.883301 
	C736.804688,1903.362793 729.800171,1908.377930 719.384644,1909.957275 
	C719.924500,1909.119751 720.741089,1907.647827 721.788513,1907.459595 
	C734.227783,1905.222778 736.306763,1895.541504 737.947876,1885.442749 
	C738.226196,1883.729736 738.891174,1882.079712 739.686890,1880.200195 
z"/>
<path fill="#000000" opacity="1.000000" stroke="none" 
	d="
M550.169128,1776.690918 
	C547.815491,1771.303101 546.070923,1765.384155 543.328796,1759.970459 
	C540.446899,1754.280762 536.609985,1749.074829 533.093994,1743.328857 
	C535.073608,1744.784790 537.922852,1746.170898 539.085754,1748.426514 
	C543.144592,1756.299072 546.674072,1764.448486 550.253601,1772.559570 
	C550.728943,1773.636475 550.332397,1775.098389 550.169128,1776.690918 
z"/>
<path fill="#000000" opacity="1.000000" stroke="none" 
	d="
M403.675873,1746.094971 
	C401.722198,1749.158203 399.441956,1752.316528 397.161713,1755.474731 
	C396.682251,1755.317139 396.202820,1755.159424 395.723358,1755.001709 
	C394.071045,1746.329834 395.176666,1737.599243 396.000458,1728.437378 
	C396.490540,1729.728027 397.335083,1731.442993 397.397949,1733.186401 
	C397.585083,1738.376221 397.465027,1743.577148 397.465027,1749.605469 
	C399.850433,1748.220947 401.599854,1747.205444 403.675873,1746.094971 
z"/>
<path fill="#000000" opacity="1.000000" stroke="none" 
	d="
M531.903442,1741.671265 
	C523.414978,1737.527710 514.877380,1732.959961 506.213348,1728.646484 
	C503.887482,1727.488525 501.176483,1727.104248 498.320496,1726.182373 
	C502.454254,1726.698120 507.219086,1726.625000 511.298248,1728.261230 
	C518.863525,1731.295898 526.840454,1734.075806 531.903442,1741.671265 
z"/>
<path fill="#000000" opacity="1.000000" stroke="none" 
	d="
M234.309540,1947.170410 
	C243.774170,1943.064941 253.549454,1939.129883 263.661987,1935.097412 
	C263.625336,1935.722534 263.439240,1936.711182 262.849243,1937.127563 
	C254.381790,1943.105713 244.943939,1946.462646 234.309540,1947.170410 
z"/>
<path fill="#000000" opacity="1.000000" stroke="none" 
	d="
M1468.212036,1951.322021 
	C1477.755371,1951.210815 1487.510742,1951.416870 1497.633057,1951.811279 
	C1488.141357,1951.879639 1478.282715,1951.759399 1468.212036,1951.322021 
z"/>
<path fill="#000000" opacity="1.000000" stroke="none" 
	d="
M592.825134,1898.317749 
	C595.944214,1906.098267 598.886658,1914.196533 601.915405,1922.647461 
	C601.404663,1922.725708 600.410950,1922.583374 600.269348,1922.157593 
	C597.668213,1914.337158 595.169128,1906.482666 592.825134,1898.317749 
z"/>
<path fill="#000000" opacity="1.000000" stroke="none" 
	d="
M1393.787964,1628.677979 
	C1385.645752,1628.996094 1377.291504,1628.996948 1368.468506,1628.996460 
	C1368.307617,1628.610718 1368.619995,1627.887207 1368.922363,1627.891357 
	C1377.140869,1628.002441 1385.358276,1628.187988 1393.787964,1628.677979 
z"/>
<path fill="#000000" opacity="1.000000" stroke="none" 
	d="
M741.307129,1950.156006 
	C748.432007,1947.057007 755.864807,1944.114014 763.648804,1941.085449 
	C763.228699,1942.026001 762.658020,1943.639893 761.653564,1943.982788 
	C755.026123,1946.245239 748.305359,1948.234009 741.307129,1950.156006 
z"/>
<path fill="#000000" opacity="1.000000" stroke="none" 
	d="
M598.689697,1761.141602 
	C596.794312,1768.123657 594.586182,1775.247192 592.189941,1782.685425 
	C590.876709,1774.806885 593.865601,1767.821655 598.689697,1761.141602 
z"/>
<path fill="#000000" opacity="1.000000" stroke="none" 
	d="
M671.841797,1909.694946 
	C664.614868,1908.577759 657.758545,1906.199707 653.095459,1899.327637 
	C659.226746,1902.464966 665.455505,1905.929810 671.841797,1909.694946 
z"/>
<path fill="#000000" opacity="1.000000" stroke="none" 
	d="
M252.859665,1639.686035 
	C246.532379,1637.798218 240.065460,1635.601440 233.298767,1633.202393 
	C240.410202,1632.535522 247.061691,1634.420410 252.859665,1639.686035 
z"/>
<path fill="#000000" opacity="1.000000" stroke="none" 
	d="
M652.960938,1898.623901 
	C650.677795,1893.599121 648.355530,1888.198242 646.019043,1882.398682 
	C648.310486,1887.415894 650.616150,1892.831909 652.960938,1898.623901 
z"/>
<path fill="#000000" opacity="1.000000" stroke="none" 
	d="
M268.901550,1648.671631 
	C264.830078,1646.485352 260.661011,1643.970703 256.245392,1641.228149 
	C261.691437,1640.964111 265.618408,1644.007080 268.901550,1648.671631 
z"/>
<path fill="#000000" opacity="1.000000" stroke="none" 
	d="
M606.039795,1929.356201 
	C609.865540,1932.490845 613.731079,1935.981812 617.798584,1939.736328 
	C611.977112,1938.945923 608.415100,1935.039673 606.039795,1929.356201 
z"/>
<path fill="#000000" opacity="1.000000" stroke="none" 
	d="
M776.963257,1749.634766 
	C773.459534,1746.518066 769.919067,1743.036011 766.188965,1739.277100 
	C771.613708,1740.324951 775.553101,1743.432129 776.963257,1749.634766 
z"/>
<path fill="#000000" opacity="1.000000" stroke="none" 
	d="
M766.272400,1940.122314 
	C769.445984,1937.397461 772.893677,1934.794800 776.670654,1932.096069 
	C774.868591,1936.463745 771.854126,1939.807983 766.272400,1940.122314 
z"/>
<path fill="#000000" opacity="1.000000" stroke="none" 
	d="
M1416.789551,1628.679443 
	C1412.643066,1628.995972 1408.286255,1628.996948 1403.464600,1628.996460 
	C1407.377930,1625.593506 1411.953979,1626.451538 1416.789551,1628.679443 
z"/>
<path fill="#000000" opacity="1.000000" stroke="none" 
	d="
M39.673447,1655.096436 
	C37.844707,1658.197998 35.687366,1661.395874 33.265854,1664.796875 
	C32.632538,1660.124634 35.725056,1657.488281 39.673447,1655.096436 
z"/>
<path fill="#000000" opacity="1.000000" stroke="none" 
	d="
M780.326294,1928.903687 
	C782.154663,1925.803467 784.311829,1922.606812 786.733276,1919.205078 
	C787.368225,1923.876099 784.273987,1926.511475 780.326294,1928.903687 
z"/>
<path fill="#000000" opacity="1.000000" stroke="none" 
	d="
M607.671875,1747.096924 
	C605.844116,1750.197998 603.686462,1753.396118 601.264404,1756.797119 
	C601.221497,1752.507324 603.346497,1749.245728 607.671875,1747.096924 
z"/>
<path fill="#000000" opacity="1.000000" stroke="none" 
	d="
M301.318298,1793.791992 
	C301.002533,1793.555542 301.000549,1793.111084 300.998383,1791.883301 
	C300.997559,1788.400024 300.996948,1785.700073 300.996338,1783.000000 
	C300.997498,1782.833374 300.998657,1782.666626 301.001892,1782.250000 
	C304.289093,1785.694458 303.569489,1789.606201 301.318298,1793.791992 
z"/>
<path fill="#000000" opacity="1.000000" stroke="none" 
	d="
M276.958984,1656.642944 
	C274.454865,1654.516968 271.910950,1652.033936 269.182922,1649.275391 
	C273.217377,1649.712646 275.732391,1652.277344 276.958984,1656.642944 
z"/>
<path fill="#000000" opacity="1.000000" stroke="none" 
	d="
M903.663574,1743.097778 
	C902.171021,1745.532349 900.348694,1748.064819 898.263184,1750.798584 
	C899.777954,1748.398560 901.555908,1745.796997 903.663574,1743.097778 
z"/>
<path fill="#000000" opacity="1.000000" stroke="none" 
	d="
M1608.664062,1628.820312 
	C1606.615479,1629.332520 1604.230957,1629.665039 1601.423218,1629.996338 
	C1603.442749,1629.543579 1605.885376,1629.092041 1608.664062,1628.820312 
z"/>
<path fill="#000000" opacity="1.000000" stroke="none" 
	d="
M277.335144,1923.896729 
	C278.157623,1922.133667 279.316406,1920.267212 280.737000,1918.200439 
	C279.889709,1919.931152 278.780609,1921.862427 277.335144,1923.896729 
z"/>
<path fill="#000000" opacity="1.000000" stroke="none" 
	d="
M602.014160,1923.371948 
	C603.272827,1924.783447 604.545715,1926.566895 605.910522,1928.675171 
	C604.677734,1927.247925 603.353027,1925.495972 602.014160,1923.371948 
z"/>
<path fill="#000000" opacity="1.000000" stroke="none" 
	d="
M904.322632,1782.905518 
	C905.448547,1781.396118 906.899475,1779.792236 908.675232,1778.094116 
	C907.549194,1779.603760 906.098389,1781.207520 904.322632,1782.905518 
z"/>
<path fill="#000000" opacity="1.000000" stroke="none" 
	d="
M762.884277,1736.670166 
	C761.466919,1736.174072 759.933838,1735.348022 758.199158,1734.260986 
	C759.587891,1734.780029 761.178223,1735.560181 762.884277,1736.670166 
z"/>
<path fill="#000000" opacity="1.000000" stroke="none" 
	d="
M611.647583,1743.044189 
	C610.844666,1744.216919 609.686829,1745.433838 608.264526,1746.825439 
	C609.097595,1745.696167 610.195190,1744.392212 611.647583,1743.044189 
z"/>
<path fill="#000000" opacity="1.000000" stroke="none" 
	d="
M270.353516,1930.955933 
	C271.156006,1929.783203 272.313171,1928.566406 273.734558,1927.174805 
	C272.901947,1928.303833 271.805054,1929.607788 270.353516,1930.955933 
z"/>
<path fill="#000000" opacity="1.000000" stroke="none" 
	d="
M47.657230,1648.039062 
	C46.875050,1648.942627 45.748947,1649.885254 44.311733,1650.913818 
	C45.104851,1650.026001 46.209080,1649.052002 47.657230,1648.039062 
z"/>
<path fill="#000000" opacity="1.000000" stroke="none" 
	d="
M901.319458,1786.892822 
	C901.820190,1785.787476 902.642822,1784.574829 903.732727,1783.181152 
	C903.213806,1784.261963 902.427551,1785.523804 901.319458,1786.892822 
z"/>
<path fill="#000000" opacity="1.000000" stroke="none" 
	d="
M1030.960815,1750.656250 
	C1030.057251,1749.874146 1029.114624,1748.748169 1028.085938,1747.311035 
	C1028.973877,1748.104126 1029.947754,1749.208252 1030.960815,1750.656250 
z"/>
<path fill="#000000" opacity="1.000000" stroke="none" 
	d="
M398.383057,1926.000000 
	C398.452423,1925.298096 398.895874,1924.596313 399.339294,1923.894409 
	C399.836945,1924.408447 400.334625,1924.922607 400.917389,1925.718262 
	C400.253998,1926.000000 399.505524,1926.000000 398.383057,1926.000000 
z"/>
<path fill="#000000" opacity="1.000000" stroke="none" 
	d="
M780.107788,1753.758301 
	C779.385681,1753.198975 778.773865,1752.398071 778.079834,1751.298584 
	C778.737732,1751.838867 779.477844,1752.677612 780.107788,1753.758301 
z"/>
<path fill="#000000" opacity="1.000000" stroke="none" 
	d="
M407.668945,1742.059326 
	C407.172455,1742.887695 406.342407,1743.775391 405.256653,1744.831543 
	C405.779053,1744.039551 406.557251,1743.079224 407.668945,1742.059326 
z"/>
<path fill="#000000" opacity="1.000000" stroke="none" 
	d="
M274.332123,1926.940674 
	C274.828278,1926.112305 275.657806,1925.224609 276.743103,1924.168457 
	C276.221100,1924.960449 275.443329,1925.920776 274.332123,1926.940674 
z"/>
<path fill="#000000" opacity="1.000000" stroke="none" 
	d="
M591.863647,1893.238647 
	C592.311584,1893.786621 592.620972,1894.573364 592.962708,1895.679932 
	C592.571777,1895.159058 592.148438,1894.318237 591.863647,1893.238647 
z"/>
<path fill="#000000" opacity="1.000000" stroke="none" 
	d="
M267.317902,1932.952271 
	C267.799591,1932.387817 268.600861,1931.775635 269.700745,1931.081787 
	C269.212067,1931.634888 268.424744,1932.269653 267.317902,1932.952271 
z"/>
<path fill="#000000" opacity="1.000000" stroke="none" 
	d="
M765.853821,1738.716797 
	C765.126038,1738.496460 764.252075,1737.992920 763.188843,1737.244629 
	C763.902222,1737.477905 764.804932,1737.955811 765.853821,1738.716797 
z"/>
<path fill="#000000" opacity="1.000000" stroke="none" 
	d="
M460.442322,1766.390625 
	C466.072235,1767.646729 471.360687,1768.478638 476.418701,1770.051514 
	C486.539917,1773.198608 492.537476,1780.480469 494.792145,1790.620239 
	C500.158264,1814.752441 499.702179,1839.191406 498.220612,1863.673096 
	C497.553162,1874.701416 496.384521,1885.562012 491.223816,1895.608398 
	C488.338013,1901.226440 484.051300,1905.339111 478.130737,1907.268799 
	C458.359863,1913.713379 438.478851,1914.286743 418.910736,1906.671753 
	C408.237366,1902.518188 403.435913,1893.094971 401.392426,1882.658203 
	C399.515930,1873.074463 398.685822,1863.233643 398.084625,1853.463623 
	C396.991364,1835.696411 397.205292,1817.940674 400.063110,1800.283569 
	C403.781738,1777.308228 413.925690,1767.658447 437.027374,1766.156250 
	C444.648407,1765.660645 452.338287,1766.222900 460.442322,1766.390625 
z"/>
<path fill="#000000" opacity="1.000000" stroke="none" 
	d="
M75.999725,1798.000000 
	C77.337593,1771.108643 78.454262,1744.702881 80.172897,1718.336304 
	C80.588898,1711.954102 82.449158,1705.507446 84.616440,1699.437256 
	C87.433014,1691.548340 94.388084,1687.637207 101.957481,1685.703125 
	C110.313713,1683.568115 118.905632,1681.747437 127.483017,1681.218262 
	C143.080658,1680.256226 158.800140,1679.380737 174.362183,1680.291016 
	C188.369125,1681.110352 202.371857,1683.745117 216.109512,1686.785278 
	C224.658554,1688.677368 230.867828,1694.734009 232.176910,1704.010864 
	C234.333847,1719.296387 236.876968,1734.592041 237.799454,1749.970825 
	C238.964172,1769.388184 239.396271,1788.915527 238.804718,1808.354614 
	C238.148636,1829.914795 237.852951,1851.564209 232.699203,1872.805908 
	C229.723572,1885.070435 222.467651,1892.677856 210.690887,1895.371338 
	C200.530716,1897.695068 190.067337,1899.010620 179.663544,1899.865967 
	C168.407745,1900.791138 157.048920,1901.212280 145.765137,1900.867798 
	C129.965088,1900.385254 114.248734,1898.779907 99.023209,1893.907959 
	C91.358635,1891.455322 86.166847,1886.359741 84.056313,1879.063477 
	C81.389992,1869.846313 79.042641,1860.338013 78.265976,1850.816040 
	C76.847992,1833.431396 76.685738,1815.944336 75.999725,1798.000000 
z"/>
<path fill="#050505" opacity="1.000000" stroke="none" 
	d="
M300.676880,1783.154053 
	C300.996948,1785.700073 300.997559,1788.400024 300.997253,1791.550049 
	C297.178284,1789.180664 297.047302,1787.398682 300.676880,1783.154053 
z"/>
<path fill="#000000" opacity="1.000000" stroke="none" 
	d="
M667.944580,1767.774658 
	C685.601440,1765.072754 702.805176,1764.939941 719.965393,1768.479492 
	C730.512634,1770.654907 736.841187,1777.217041 738.450134,1787.591675 
	C739.640747,1795.269287 739.698547,1803.151245 739.768188,1810.946533 
	C739.780090,1812.271729 737.459900,1814.510986 735.946045,1814.775146 
	C732.548584,1815.368286 728.980774,1814.997437 725.482300,1814.997925 
	C700.325317,1815.001465 675.168396,1815.008179 650.011414,1814.993286 
	C643.353577,1814.989258 642.650208,1814.362671 643.065674,1807.946655 
	C643.398376,1802.809326 643.945190,1797.676514 644.630920,1792.573120 
	C646.454956,1778.997681 653.652100,1770.310791 667.944580,1767.774658 
z"/>
</svg>